<svg width="50" height="50" viewBox="0 0 50 50" fill="none" xmlns="http://www.w3.org/2000/svg">
<path d="M0.5 10C0.5 4.75329 4.75329 0.5 10 0.5H40C45.2467 0.5 49.5 4.7533 49.5 10V40C49.5 45.2467 45.2467 49.5 40 49.5H10C4.75329 49.5 0.5 45.2467 0.5 40V10Z" fill="white" stroke="#0063C7"/>
<path d="M25.398 32.804L25.8585 33.6917L25.8585 33.6917L25.398 32.804ZM24.602 32.804L24.1415 33.6917L24.1415 33.6917L24.602 32.804ZM31 24C31 26.1458 29.9079 27.9159 28.545 29.2906C27.183 30.6644 25.6342 31.555 24.9376 31.9163L25.8585 33.6917C26.6448 33.2838 28.397 32.2805 29.9653 30.6987C31.5326 29.1178 33 26.8706 33 24H31ZM25 18C28.3137 18 31 20.6863 31 24H33C33 19.5817 29.4183 16 25 16V18ZM19 24C19 20.6863 21.6863 18 25 18V16C20.5817 16 17 19.5817 17 24H19ZM25.0624 31.9163C24.3658 31.555 22.817 30.6644 21.455 29.2906C20.0921 27.9159 19 26.1458 19 24H17C17 26.8706 18.4674 29.1178 20.0347 30.6987C21.603 32.2805 23.3552 33.2838 24.1415 33.6917L25.0624 31.9163ZM24.9376 31.9163C24.9514 31.9091 24.9733 31.9023 25 31.9023C25.0267 31.9023 25.0486 31.9091 25.0624 31.9163L24.1415 33.6917C24.6831 33.9726 25.3169 33.9726 25.8585 33.6917L24.9376 31.9163ZM27 24C27 25.1046 26.1046 26 25 26V28C27.2091 28 29 26.2091 29 24H27ZM25 22C26.1046 22 27 22.8954 27 24H29C29 21.7909 27.2091 20 25 20V22ZM23 24C23 22.8954 23.8954 22 25 22V20C22.7909 20 21 21.7909 21 24H23ZM25 26C23.8954 26 23 25.1046 23 24H21C21 26.2091 22.7909 28 25 28V26Z" fill="#0063C7"/>
</svg>
