<?xml version="1.0" standalone="no"?>
<!DOCTYPE svg PUBLIC "-//W3C//DTD SVG 20010904//EN"
 "http://www.w3.org/TR/2001/REC-SVG-20010904/DTD/svg10.dtd">
<svg version="1.0" xmlns="http://www.w3.org/2000/svg"
 width="100" height="100" viewBox="0 0 512.000000 512.000000"
 preserveAspectRatio="xMidYMid meet">

<g transform="translate(0.000000,512.000000) scale(0.100000,-0.100000)"
fill="#000000" stroke="none">
<path d="M2300 4675 c-525 -65 -1030 -337 -1362 -735 -491 -585 -637 -1358
-392 -2073 123 -357 352 -693 634 -929 597 -500 1390 -641 2120 -376 275 99
604 315 799 523 381 408 591 931 591 1475 0 502 -179 987 -508 1380 -255 305
-626 547 -1018 664 -263 78 -588 105 -864 71z m648 -189 c665 -141 1199 -593
1446 -1225 84 -214 126 -448 126 -704 -1 -319 -57 -568 -195 -852 -267 -552
-770 -943 -1377 -1071 -151 -31 -465 -44 -613 -25 -368 49 -679 175 -967 392
-106 80 -287 261 -367 367 -210 278 -339 585 -385 921 -21 144 -21 398 0 542
102 733 613 1350 1316 1588 237 81 380 101 668 97 195 -4 241 -8 348 -30z"/>
<path d="M2380 3860 c-378 -82 -652 -401 -676 -789 -24 -380 219 -740 581
-860 280 -93 566 -44 804 137 137 104 255 284 303 459 30 112 30 316 -1 428
-122 449 -563 722 -1011 625z"/>
<path  fill="#0063C7" d="M1835 2152 c-115 -61 -162 -91 -260 -167 -143 -111 -289 -279 -385
-443 -42 -71 -42 -72 -25 -99 10 -14 54 -64 99 -111 718 -748 1885 -746 2595
4 123 130 120 121 77 198 -143 256 -391 488 -676 631 l-69 35 -75 -49 c-85
-55 -192 -102 -304 -133 -65 -18 -104 -22 -252 -22 -148 0 -187 4 -252 22
-112 31 -219 78 -304 133 -41 27 -76 49 -77 49 -1 0 -42 -22 -92 -48z"/>
</g>
</svg>
