<svg width="186" height="84" viewBox="0 0 186 84" fill="none" xmlns="http://www.w3.org/2000/svg">
<g filter="url(#filter0_d_394_305)">
<path d="M4.2561 32V1.20001H23.0001V4.23601H7.9521V15.06H20.7561V18.052H7.9521V32H4.2561Z" fill="#00A27B"/>
<path d="M33.2961 32.528C31.4774 32.528 29.9668 32.22 28.7641 31.604C27.5614 30.988 26.6668 30.1667 26.0801 29.14C25.4934 28.1133 25.2001 26.9987 25.2001 25.796C25.2001 23.5667 26.0508 21.8507 27.7521 20.648C29.4534 19.4453 31.7708 18.844 34.7041 18.844H40.6001V18.58C40.6001 16.6733 40.1014 15.236 39.1041 14.268C38.1068 13.2707 36.7721 12.772 35.1001 12.772C33.6628 12.772 32.4161 13.1387 31.3601 13.872C30.3334 14.576 29.6881 15.6173 29.4241 16.996H25.6401C25.7868 15.412 26.3148 14.0773 27.2241 12.992C28.1628 11.9067 29.3214 11.0853 30.7001 10.528C32.0788 9.94134 33.5454 9.64801 35.1001 9.64801C38.1508 9.64801 40.4388 10.4693 41.9641 12.112C43.5188 13.7253 44.2961 15.8813 44.2961 18.58V32H40.9961L40.7761 28.084C40.1601 29.316 39.2508 30.372 38.0481 31.252C36.8748 32.1027 35.2908 32.528 33.2961 32.528ZM33.8681 29.404C35.2761 29.404 36.4788 29.0373 37.4761 28.304C38.5028 27.5707 39.2801 26.6173 39.8081 25.444C40.3361 24.2707 40.6001 23.0387 40.6001 21.748V21.704H35.0121C32.8414 21.704 31.3014 22.0853 30.3921 22.848C29.5121 23.5813 29.0721 24.5053 29.0721 25.62C29.0721 26.764 29.4828 27.688 30.3041 28.392C31.1548 29.0667 32.3428 29.404 33.8681 29.404Z" fill="#00A27B"/>
<path d="M57.8632 32C55.8686 32 54.2992 31.516 53.1552 30.548C52.0112 29.58 51.4392 27.8347 51.4392 25.312V13.3H47.6552V10.176H51.4392L51.9232 4.94001H55.1352V10.176H61.5592V13.3H55.1352V25.312C55.1352 26.6907 55.4139 27.6293 55.9712 28.128C56.5286 28.5973 57.5112 28.832 58.9192 28.832H61.2072V32H57.8632Z" fill="#00A27B"/>
<path d="M68.4989 5.33601C67.7655 5.33601 67.1495 5.10134 66.6509 4.63201C66.1815 4.13334 65.9469 3.51734 65.9469 2.78401C65.9469 2.08001 66.1815 1.49334 66.6509 1.02401C67.1495 0.554674 67.7655 0.320007 68.4989 0.320007C69.2029 0.320007 69.8042 0.554674 70.3029 1.02401C70.8015 1.49334 71.0508 2.08001 71.0508 2.78401C71.0508 3.51734 70.8015 4.13334 70.3029 4.63201C69.8042 5.10134 69.2029 5.33601 68.4989 5.33601ZM66.6509 32V10.176H70.3469V32H66.6509Z" fill="#00A27B"/>
<path d="M76.7822 32V10.176H80.1262L80.3902 13.344C81.0942 12.1707 82.0329 11.2613 83.2062 10.616C84.3795 9.97067 85.6995 9.64801 87.1662 9.64801C88.8969 9.64801 90.3782 10 91.6102 10.704C92.8715 11.408 93.8395 12.4787 94.5142 13.916C95.2769 12.596 96.3182 11.5547 97.6382 10.792C98.9875 10.0293 100.44 9.64801 101.994 9.64801C104.605 9.64801 106.688 10.44 108.242 12.024C109.797 13.5787 110.574 15.984 110.574 19.24V32H106.922V19.636C106.922 17.3773 106.468 15.676 105.558 14.532C104.649 13.388 103.344 12.816 101.642 12.816C99.8822 12.816 98.4155 13.5053 97.2422 14.884C96.0982 16.2333 95.5262 18.1693 95.5262 20.692V32H91.8302V19.636C91.8302 17.3773 91.3755 15.676 90.4662 14.532C89.5569 13.388 88.2515 12.816 86.5502 12.816C84.8195 12.816 83.3675 13.5053 82.1942 14.884C81.0502 16.2333 80.4782 18.1693 80.4782 20.692V32H76.7822Z" fill="#00A27B"/>
<path d="M123.402 32.528C121.583 32.528 120.072 32.22 118.87 31.604C117.667 30.988 116.772 30.1667 116.186 29.14C115.599 28.1133 115.306 26.9987 115.306 25.796C115.306 23.5667 116.156 21.8507 117.858 20.648C119.559 19.4453 121.876 18.844 124.81 18.844H130.706V18.58C130.706 16.6733 130.207 15.236 129.21 14.268C128.212 13.2707 126.878 12.772 125.206 12.772C123.768 12.772 122.522 13.1387 121.466 13.872C120.439 14.576 119.794 15.6173 119.53 16.996H115.746C115.892 15.412 116.42 14.0773 117.33 12.992C118.268 11.9067 119.427 11.0853 120.806 10.528C122.184 9.94134 123.651 9.64801 125.206 9.64801C128.256 9.64801 130.544 10.4693 132.07 12.112C133.624 13.7253 134.402 15.8813 134.402 18.58V32H131.102L130.882 28.084C130.266 29.316 129.356 30.372 128.154 31.252C126.98 32.1027 125.396 32.528 123.402 32.528ZM123.974 29.404C125.382 29.404 126.584 29.0373 127.582 28.304C128.608 27.5707 129.386 26.6173 129.914 25.444C130.442 24.2707 130.706 23.0387 130.706 21.748V21.704H125.118C122.947 21.704 121.407 22.0853 120.498 22.848C119.618 23.5813 119.178 24.5053 119.178 25.62C119.178 26.764 119.588 27.688 120.41 28.392C121.26 29.0667 122.448 29.404 123.974 29.404Z" fill="#00A27B"/>
<path d="M76.2801 67.48C74.2268 67.48 72.4134 67.1333 70.8401 66.44C69.2668 65.72 68.0268 64.7067 67.1201 63.4C66.2134 62.0667 65.7468 60.4533 65.7201 58.56H71.1201C71.1734 59.8667 71.6401 60.9733 72.5201 61.88C73.4268 62.76 74.6668 63.2 76.2401 63.2C77.6001 63.2 78.6801 62.88 79.4801 62.24C80.2801 61.5733 80.6801 60.6933 80.6801 59.6C80.6801 58.4533 80.3201 57.56 79.6001 56.92C78.9068 56.28 77.9734 55.76 76.8001 55.36C75.6268 54.96 74.3734 54.5333 73.0401 54.08C70.8801 53.3333 69.2268 52.3733 68.0801 51.2C66.9601 50.0267 66.4001 48.4667 66.4001 46.52C66.3734 44.8667 66.7601 43.4533 67.5601 42.28C68.3868 41.08 69.5068 40.16 70.9201 39.52C72.3334 38.8533 73.9601 38.52 75.8001 38.52C77.6668 38.52 79.3068 38.8533 80.7201 39.52C82.1601 40.1867 83.2801 41.12 84.0801 42.32C84.9068 43.52 85.3468 44.9467 85.4001 46.6H79.9201C79.8934 45.6133 79.5068 44.7467 78.7601 44C78.0401 43.2267 77.0268 42.84 75.7201 42.84C74.6001 42.8133 73.6534 43.0933 72.8801 43.68C72.1334 44.24 71.7601 45.0667 71.7601 46.16C71.7601 47.0933 72.0534 47.84 72.6401 48.4C73.2268 48.9333 74.0268 49.3867 75.0401 49.76C76.0534 50.1333 77.2134 50.5333 78.5201 50.96C79.9068 51.44 81.1734 52 82.3201 52.64C83.4668 53.28 84.3868 54.1333 85.0801 55.2C85.7734 56.24 86.1201 57.5867 86.1201 59.24C86.1201 60.7067 85.7468 62.0667 85.0001 63.32C84.2534 64.5733 83.1468 65.5867 81.6801 66.36C80.2134 67.1067 78.4134 67.48 76.2801 67.48Z" fill="#00A27B"/>
<path d="M99.3073 67C97.2273 67 95.5606 66.4933 94.3073 65.48C93.054 64.4667 92.4273 62.6667 92.4273 60.08V51.44H89.0273V47.16H92.4273L93.0273 41.84H97.5473V47.16H102.907V51.44H97.5473V60.12C97.5473 61.08 97.7473 61.7467 98.1473 62.12C98.574 62.4667 99.294 62.64 100.307 62.64H102.787V67H99.3073Z" fill="#00A27B"/>
<path d="M109.783 75.8L114.383 65.68H113.183L105.463 47.16H111.023L116.583 61.12L122.383 47.16H127.823L115.223 75.8H109.783Z" fill="#00A27B"/>
<path d="M131.17 67V38.2H136.29V67H131.17Z" fill="#00A27B"/>
<path d="M151.162 67.48C149.162 67.48 147.389 67.0533 145.842 66.2C144.295 65.3467 143.082 64.1467 142.202 62.6C141.322 61.0533 140.882 59.2667 140.882 57.24C140.882 55.1867 141.309 53.36 142.162 51.76C143.042 50.16 144.242 48.92 145.762 48.04C147.309 47.1333 149.122 46.68 151.202 46.68C153.149 46.68 154.869 47.1067 156.362 47.96C157.855 48.8133 159.015 49.9867 159.842 51.48C160.695 52.9467 161.122 54.5867 161.122 56.4C161.122 56.6933 161.109 57 161.082 57.32C161.082 57.64 161.069 57.9733 161.042 58.32H145.962C146.069 59.8667 146.602 61.08 147.562 61.96C148.549 62.84 149.735 63.28 151.122 63.28C152.162 63.28 153.029 63.0533 153.722 62.6C154.442 62.12 154.975 61.5067 155.322 60.76H160.522C160.149 62.0133 159.522 63.16 158.642 64.2C157.789 65.2133 156.722 66.0133 155.442 66.6C154.189 67.1867 152.762 67.48 151.162 67.48ZM151.202 50.84C149.949 50.84 148.842 51.2 147.882 51.92C146.922 52.6133 146.309 53.68 146.042 55.12H155.922C155.842 53.8133 155.362 52.7733 154.482 52C153.602 51.2267 152.509 50.84 151.202 50.84Z" fill="#00A27B"/>
<path d="M173.628 67.48C171.868 67.48 170.322 67.2 168.988 66.64C167.655 66.0533 166.588 65.2533 165.788 64.24C164.988 63.2267 164.508 62.0533 164.348 60.72H169.508C169.668 61.4933 170.095 62.16 170.788 62.72C171.508 63.2533 172.428 63.52 173.548 63.52C174.668 63.52 175.482 63.2933 175.988 62.84C176.522 62.3867 176.788 61.8667 176.788 61.28C176.788 60.4267 176.415 59.8533 175.668 59.56C174.922 59.24 173.882 58.9333 172.548 58.64C171.695 58.4533 170.828 58.2267 169.948 57.96C169.068 57.6933 168.255 57.36 167.508 56.96C166.788 56.5333 166.202 56 165.748 55.36C165.295 54.6933 165.068 53.88 165.068 52.92C165.068 51.16 165.762 49.68 167.148 48.48C168.562 47.28 170.535 46.68 173.068 46.68C175.415 46.68 177.282 47.2267 178.668 48.32C180.082 49.4133 180.922 50.92 181.188 52.84H176.348C176.055 51.3733 174.948 50.64 173.028 50.64C172.068 50.64 171.322 50.8267 170.788 51.2C170.282 51.5733 170.028 52.04 170.028 52.6C170.028 53.1867 170.415 53.6533 171.188 54C171.962 54.3467 172.988 54.6667 174.268 54.96C175.655 55.28 176.922 55.64 178.068 56.04C179.242 56.4133 180.175 56.9867 180.868 57.76C181.562 58.5067 181.908 59.5867 181.908 61C181.935 62.2267 181.615 63.3333 180.948 64.32C180.282 65.3067 179.322 66.08 178.068 66.64C176.815 67.2 175.335 67.48 173.628 67.48Z" fill="#00A27B"/>
</g>
<defs>
<filter id="filter0_d_394_305" x="0.256104" y="0.320007" width="185.654" height="83.48" filterUnits="userSpaceOnUse" color-interpolation-filters="sRGB">
<feFlood flood-opacity="0" result="BackgroundImageFix"/>
<feColorMatrix in="SourceAlpha" type="matrix" values="0 0 0 0 0 0 0 0 0 0 0 0 0 0 0 0 0 0 127 0" result="hardAlpha"/>
<feOffset dy="4"/>
<feGaussianBlur stdDeviation="2"/>
<feComposite in2="hardAlpha" operator="out"/>
<feColorMatrix type="matrix" values="0 0 0 0 0 0 0 0 0 0 0 0 0 0 0 0 0 0 0.25 0"/>
<feBlend mode="normal" in2="BackgroundImageFix" result="effect1_dropShadow_394_305"/>
<feBlend mode="normal" in="SourceGraphic" in2="effect1_dropShadow_394_305" result="shape"/>
</filter>
</defs>
</svg>
