<svg width="153" height="103" viewBox="0 0 153 103" fill="none" xmlns="http://www.w3.org/2000/svg">
<rect width="153" height="103" rx="10" fill="#C0E0FF"/>
<path fill-rule="evenodd" clip-rule="evenodd" d="M98.8244 0C95.2441 17.3474 93.0417 62.8643 103.536 90.5C105.136 94.7125 106.815 98.2152 108.524 101.113C106.88 102.3 104.86 103 102.677 103H10C4.47715 103 0 98.5229 0 93V10C0 4.47715 4.47715 0 10 0H98.8244Z" fill="#8F98FF"/>
<path d="M12.2681 64.4624H14.458C14.4141 65.1802 14.2163 65.8174 13.8647 66.374C13.5181 66.9307 13.0322 67.3652 12.4072 67.6777C11.7871 67.9902 11.04 68.1465 10.166 68.1465C9.48242 68.1465 8.86963 68.0293 8.32764 67.7949C7.78564 67.5557 7.32178 67.2139 6.93604 66.7695C6.55518 66.3252 6.26465 65.7881 6.06445 65.1582C5.86426 64.5283 5.76416 63.8228 5.76416 63.0415V62.3018C5.76416 61.5205 5.8667 60.8149 6.07178 60.1851C6.28174 59.5503 6.57959 59.0107 6.96533 58.5664C7.35596 58.1221 7.82227 57.7803 8.36426 57.541C8.90625 57.3018 9.51172 57.1821 10.1807 57.1821C11.0693 57.1821 11.8188 57.3433 12.4292 57.6655C13.0444 57.9878 13.5205 58.4321 13.8574 58.9985C14.1992 59.5649 14.4043 60.2095 14.4727 60.9321H12.2754C12.251 60.5024 12.1655 60.1387 12.019 59.8408C11.8726 59.5381 11.6504 59.311 11.3525 59.1597C11.0596 59.0034 10.6689 58.9253 10.1807 58.9253C9.81445 58.9253 9.49463 58.9937 9.22119 59.1304C8.94775 59.2671 8.71826 59.4746 8.53271 59.7529C8.34717 60.0312 8.20801 60.3828 8.11523 60.8076C8.02734 61.2275 7.9834 61.7207 7.9834 62.2871V63.0415C7.9834 63.5933 8.0249 64.0791 8.10791 64.499C8.19092 64.9141 8.31787 65.2656 8.48877 65.5537C8.66455 65.8369 8.88916 66.0518 9.1626 66.1982C9.44092 66.3398 9.77539 66.4106 10.166 66.4106C10.625 66.4106 11.0034 66.3374 11.3013 66.1909C11.5991 66.0444 11.8262 65.8271 11.9824 65.5391C12.1436 65.251 12.2388 64.8921 12.2681 64.4624ZM20.0464 66.2129V62.6826C20.0464 62.4287 20.0049 62.2114 19.9219 62.0308C19.8389 61.8452 19.7095 61.7012 19.5337 61.5986C19.3628 61.4961 19.1406 61.4448 18.8672 61.4448C18.6328 61.4448 18.4302 61.4863 18.2593 61.5693C18.0884 61.6475 17.9565 61.7622 17.8638 61.9136C17.771 62.0601 17.7246 62.2334 17.7246 62.4336H15.6152C15.6152 62.0967 15.6934 61.7769 15.8496 61.4741C16.0059 61.1714 16.2329 60.9053 16.5308 60.6758C16.8286 60.4414 17.1826 60.2583 17.5928 60.1265C18.0078 59.9946 18.4717 59.9287 18.9844 59.9287C19.5996 59.9287 20.1465 60.0312 20.625 60.2363C21.1035 60.4414 21.4795 60.749 21.7529 61.1592C22.0312 61.5693 22.1704 62.082 22.1704 62.6973V66.0884C22.1704 66.5229 22.1973 66.8794 22.251 67.1577C22.3047 67.4312 22.3828 67.6704 22.4854 67.8755V68H20.354C20.2515 67.7852 20.1733 67.5166 20.1196 67.1943C20.0708 66.8672 20.0464 66.54 20.0464 66.2129ZM20.3247 63.1733L20.3394 64.3672H19.1602C18.8818 64.3672 18.6401 64.3989 18.4351 64.4624C18.23 64.5259 18.0615 64.6162 17.9297 64.7334C17.7979 64.8457 17.7002 64.9775 17.6367 65.1289C17.5781 65.2803 17.5488 65.4463 17.5488 65.627C17.5488 65.8076 17.5903 65.9712 17.6733 66.1177C17.7563 66.2593 17.876 66.3716 18.0322 66.4546C18.1885 66.5327 18.3716 66.5718 18.5815 66.5718C18.8989 66.5718 19.1748 66.5083 19.4092 66.3813C19.6436 66.2544 19.8242 66.0981 19.9512 65.9126C20.083 65.7271 20.1514 65.5513 20.1562 65.3853L20.7129 66.2788C20.6348 66.479 20.5273 66.6865 20.3906 66.9014C20.2588 67.1162 20.0903 67.3188 19.8853 67.5093C19.6802 67.6948 19.4336 67.8486 19.1455 67.9707C18.8574 68.0879 18.5156 68.1465 18.1201 68.1465C17.6172 68.1465 17.1606 68.0464 16.7505 67.8462C16.3452 67.6411 16.0229 67.3604 15.7837 67.0039C15.5493 66.6426 15.4321 66.2324 15.4321 65.7734C15.4321 65.3584 15.5103 64.9897 15.6665 64.6675C15.8228 64.3452 16.0522 64.0742 16.355 63.8545C16.6626 63.6299 17.0459 63.4614 17.5049 63.3491C17.9639 63.2319 18.4961 63.1733 19.1016 63.1733H20.3247ZM28.4766 66.2715V56.75H30.6006V68H28.689L28.4766 66.2715ZM23.4668 64.1328V63.979C23.4668 63.3735 23.5352 62.8242 23.6719 62.3311C23.8086 61.833 24.0088 61.4058 24.2725 61.0493C24.5361 60.6929 24.8608 60.417 25.2466 60.2217C25.6323 60.0264 26.0718 59.9287 26.5649 59.9287C27.0288 59.9287 27.4341 60.0264 27.7808 60.2217C28.1323 60.417 28.4302 60.6953 28.6743 61.0566C28.9233 61.4131 29.1235 61.8354 29.2749 62.3237C29.4263 62.8071 29.5361 63.3369 29.6045 63.9131V64.25C29.5361 64.8018 29.4263 65.3145 29.2749 65.7881C29.1235 66.2617 28.9233 66.6768 28.6743 67.0332C28.4302 67.3848 28.1323 67.6582 27.7808 67.8535C27.4292 68.0488 27.019 68.1465 26.5503 68.1465C26.0571 68.1465 25.6177 68.0464 25.2319 67.8462C24.8511 67.646 24.5288 67.3652 24.2651 67.0039C24.0063 66.6426 23.8086 66.2178 23.6719 65.7295C23.5352 65.2412 23.4668 64.709 23.4668 64.1328ZM25.5762 63.979V64.1328C25.5762 64.46 25.6006 64.7651 25.6494 65.0483C25.7031 65.3315 25.7886 65.583 25.9058 65.8027C26.0278 66.0176 26.1841 66.186 26.3745 66.3081C26.5698 66.4253 26.8066 66.4839 27.085 66.4839C27.4463 66.4839 27.7441 66.4033 27.9785 66.2422C28.2129 66.0762 28.3911 65.8491 28.5132 65.561C28.6401 65.2729 28.7134 64.9409 28.7329 64.5649V63.6055C28.7183 63.2979 28.6743 63.022 28.6011 62.7778C28.5327 62.5288 28.4302 62.3164 28.2935 62.1406C28.1616 61.9648 27.9956 61.8281 27.7954 61.7305C27.6001 61.6328 27.3682 61.584 27.0996 61.584C26.8262 61.584 26.5918 61.6475 26.3965 61.7744C26.2012 61.8965 26.0425 62.0649 25.9204 62.2798C25.8032 62.4946 25.7153 62.7485 25.6567 63.0415C25.603 63.3296 25.5762 63.6421 25.5762 63.979ZM36.5259 66.2129V62.6826C36.5259 62.4287 36.4844 62.2114 36.4014 62.0308C36.3184 61.8452 36.189 61.7012 36.0132 61.5986C35.8423 61.4961 35.6201 61.4448 35.3467 61.4448C35.1123 61.4448 34.9097 61.4863 34.7388 61.5693C34.5679 61.6475 34.436 61.7622 34.3433 61.9136C34.2505 62.0601 34.2041 62.2334 34.2041 62.4336H32.0947C32.0947 62.0967 32.1729 61.7769 32.3291 61.4741C32.4854 61.1714 32.7124 60.9053 33.0103 60.6758C33.3081 60.4414 33.6621 60.2583 34.0723 60.1265C34.4873 59.9946 34.9512 59.9287 35.4639 59.9287C36.0791 59.9287 36.626 60.0312 37.1045 60.2363C37.583 60.4414 37.959 60.749 38.2324 61.1592C38.5107 61.5693 38.6499 62.082 38.6499 62.6973V66.0884C38.6499 66.5229 38.6768 66.8794 38.7305 67.1577C38.7842 67.4312 38.8623 67.6704 38.9648 67.8755V68H36.8335C36.731 67.7852 36.6528 67.5166 36.5991 67.1943C36.5503 66.8672 36.5259 66.54 36.5259 66.2129ZM36.8042 63.1733L36.8188 64.3672H35.6396C35.3613 64.3672 35.1196 64.3989 34.9146 64.4624C34.7095 64.5259 34.541 64.6162 34.4092 64.7334C34.2773 64.8457 34.1797 64.9775 34.1162 65.1289C34.0576 65.2803 34.0283 65.4463 34.0283 65.627C34.0283 65.8076 34.0698 65.9712 34.1528 66.1177C34.2358 66.2593 34.3555 66.3716 34.5117 66.4546C34.668 66.5327 34.8511 66.5718 35.061 66.5718C35.3784 66.5718 35.6543 66.5083 35.8887 66.3813C36.123 66.2544 36.3037 66.0981 36.4307 65.9126C36.5625 65.7271 36.6309 65.5513 36.6357 65.3853L37.1924 66.2788C37.1143 66.479 37.0068 66.6865 36.8701 66.9014C36.7383 67.1162 36.5698 67.3188 36.3647 67.5093C36.1597 67.6948 35.9131 67.8486 35.625 67.9707C35.3369 68.0879 34.9951 68.1465 34.5996 68.1465C34.0967 68.1465 33.6401 68.0464 33.23 67.8462C32.8247 67.6411 32.5024 67.3604 32.2632 67.0039C32.0288 66.6426 31.9116 66.2324 31.9116 65.7734C31.9116 65.3584 31.9897 64.9897 32.146 64.6675C32.3022 64.3452 32.5317 64.0742 32.8345 63.8545C33.1421 63.6299 33.5254 63.4614 33.9844 63.3491C34.4434 63.2319 34.9756 63.1733 35.5811 63.1733H36.8042ZM44.5605 65.8101C44.5605 65.6587 44.5166 65.522 44.4287 65.3999C44.3408 65.2778 44.1772 65.1655 43.938 65.063C43.7036 64.9556 43.3643 64.8579 42.9199 64.77C42.5195 64.6821 42.146 64.5723 41.7993 64.4404C41.4575 64.3037 41.1597 64.1401 40.9058 63.9497C40.6567 63.7593 40.4614 63.5347 40.3198 63.2759C40.1782 63.0122 40.1074 62.7119 40.1074 62.375C40.1074 62.043 40.1782 61.7305 40.3198 61.4375C40.4663 61.1445 40.6738 60.8857 40.9424 60.6611C41.2158 60.4316 41.5479 60.2534 41.9385 60.1265C42.334 59.9946 42.7783 59.9287 43.2715 59.9287C43.96 59.9287 44.5508 60.0386 45.0439 60.2583C45.542 60.478 45.9229 60.7808 46.1865 61.1665C46.4551 61.5474 46.5894 61.9819 46.5894 62.4702H44.48C44.48 62.2651 44.436 62.082 44.3481 61.9209C44.2651 61.7549 44.1333 61.6255 43.9526 61.5327C43.7769 61.4351 43.5474 61.3862 43.2642 61.3862C43.0298 61.3862 42.8271 61.4277 42.6562 61.5107C42.4854 61.5889 42.3535 61.6963 42.2607 61.833C42.1729 61.9648 42.1289 62.1113 42.1289 62.2725C42.1289 62.3945 42.1533 62.5044 42.2021 62.6021C42.2559 62.6948 42.3413 62.7803 42.4585 62.8584C42.5757 62.9365 42.7271 63.0098 42.9126 63.0781C43.103 63.1416 43.3374 63.2002 43.6157 63.2539C44.187 63.3711 44.6973 63.5249 45.1465 63.7153C45.5957 63.9009 45.9521 64.1548 46.2158 64.4771C46.4795 64.7944 46.6113 65.2119 46.6113 65.7295C46.6113 66.0811 46.5332 66.4033 46.377 66.6963C46.2207 66.9893 45.9961 67.2456 45.7031 67.4653C45.4102 67.6802 45.0586 67.8486 44.6484 67.9707C44.2432 68.0879 43.7866 68.1465 43.2788 68.1465C42.5415 68.1465 41.9165 68.0146 41.4038 67.751C40.896 67.4873 40.5103 67.1528 40.2466 66.7476C39.9878 66.3374 39.8584 65.9175 39.8584 65.4878H41.8579C41.8677 65.7759 41.9409 66.0078 42.0776 66.1836C42.2192 66.3594 42.3975 66.4863 42.6123 66.5645C42.832 66.6426 43.0688 66.6816 43.3228 66.6816C43.5962 66.6816 43.8232 66.645 44.0039 66.5718C44.1846 66.4937 44.3213 66.3911 44.4141 66.2642C44.5117 66.1323 44.5605 65.981 44.5605 65.8101ZM51.8628 60.0752V61.5693H47.2485V60.0752H51.8628ZM48.3911 58.1196H50.5005V65.6123C50.5005 65.8418 50.5298 66.0176 50.5884 66.1396C50.6519 66.2617 50.7446 66.3472 50.8667 66.396C50.9888 66.4399 51.1426 66.4619 51.3281 66.4619C51.46 66.4619 51.5771 66.457 51.6797 66.4473C51.7871 66.4326 51.8774 66.418 51.9507 66.4033L51.958 67.9561C51.7773 68.0146 51.582 68.061 51.3721 68.0952C51.1621 68.1294 50.9302 68.1465 50.6763 68.1465C50.2124 68.1465 49.8071 68.0708 49.4604 67.9194C49.1187 67.7632 48.855 67.5142 48.6694 67.1724C48.4839 66.8306 48.3911 66.3813 48.3911 65.8247V58.1196ZM55.1733 61.8037V68H53.064V60.0752H55.0488L55.1733 61.8037ZM57.561 60.0239L57.5244 61.9795C57.4219 61.9648 57.2974 61.9526 57.1509 61.9429C57.0093 61.9282 56.8799 61.9209 56.7627 61.9209C56.4648 61.9209 56.2061 61.96 55.9863 62.0381C55.7715 62.1113 55.5908 62.2212 55.4443 62.3677C55.3027 62.5142 55.1953 62.6924 55.1221 62.9023C55.0537 63.1123 55.0146 63.3516 55.0049 63.6201L54.5801 63.4883C54.5801 62.9756 54.6313 62.5044 54.7339 62.0747C54.8364 61.6401 54.9854 61.2617 55.1807 60.9395C55.3809 60.6172 55.625 60.3682 55.9131 60.1924C56.2012 60.0166 56.5308 59.9287 56.9019 59.9287C57.019 59.9287 57.1387 59.9385 57.2607 59.958C57.3828 59.9727 57.4829 59.9946 57.561 60.0239ZM62.5854 66.2129V62.6826C62.5854 62.4287 62.5439 62.2114 62.4609 62.0308C62.3779 61.8452 62.2485 61.7012 62.0728 61.5986C61.9019 61.4961 61.6797 61.4448 61.4062 61.4448C61.1719 61.4448 60.9692 61.4863 60.7983 61.5693C60.6274 61.6475 60.4956 61.7622 60.4028 61.9136C60.3101 62.0601 60.2637 62.2334 60.2637 62.4336H58.1543C58.1543 62.0967 58.2324 61.7769 58.3887 61.4741C58.5449 61.1714 58.772 60.9053 59.0698 60.6758C59.3677 60.4414 59.7217 60.2583 60.1318 60.1265C60.5469 59.9946 61.0107 59.9287 61.5234 59.9287C62.1387 59.9287 62.6855 60.0312 63.1641 60.2363C63.6426 60.4414 64.0186 60.749 64.292 61.1592C64.5703 61.5693 64.7095 62.082 64.7095 62.6973V66.0884C64.7095 66.5229 64.7363 66.8794 64.79 67.1577C64.8438 67.4312 64.9219 67.6704 65.0244 67.8755V68H62.8931C62.7905 67.7852 62.7124 67.5166 62.6587 67.1943C62.6099 66.8672 62.5854 66.54 62.5854 66.2129ZM62.8638 63.1733L62.8784 64.3672H61.6992C61.4209 64.3672 61.1792 64.3989 60.9741 64.4624C60.769 64.5259 60.6006 64.6162 60.4688 64.7334C60.3369 64.8457 60.2393 64.9775 60.1758 65.1289C60.1172 65.2803 60.0879 65.4463 60.0879 65.627C60.0879 65.8076 60.1294 65.9712 60.2124 66.1177C60.2954 66.2593 60.415 66.3716 60.5713 66.4546C60.7275 66.5327 60.9106 66.5718 61.1206 66.5718C61.438 66.5718 61.7139 66.5083 61.9482 66.3813C62.1826 66.2544 62.3633 66.0981 62.4902 65.9126C62.6221 65.7271 62.6904 65.5513 62.6953 65.3853L63.252 66.2788C63.1738 66.479 63.0664 66.6865 62.9297 66.9014C62.7979 67.1162 62.6294 67.3188 62.4243 67.5093C62.2192 67.6948 61.9727 67.8486 61.6846 67.9707C61.3965 68.0879 61.0547 68.1465 60.6592 68.1465C60.1562 68.1465 59.6997 68.0464 59.2896 67.8462C58.8843 67.6411 58.562 67.3604 58.3228 67.0039C58.0884 66.6426 57.9712 66.2324 57.9712 65.7734C57.9712 65.3584 58.0493 64.9897 58.2056 64.6675C58.3618 64.3452 58.5913 64.0742 58.894 63.8545C59.2017 63.6299 59.585 63.4614 60.0439 63.3491C60.5029 63.2319 61.0352 63.1733 61.6406 63.1733H62.8638ZM68.4448 61.8037V68H66.3354V60.0752H68.3203L68.4448 61.8037ZM70.8325 60.0239L70.7959 61.9795C70.6934 61.9648 70.5688 61.9526 70.4224 61.9429C70.2808 61.9282 70.1514 61.9209 70.0342 61.9209C69.7363 61.9209 69.4775 61.96 69.2578 62.0381C69.043 62.1113 68.8623 62.2212 68.7158 62.3677C68.5742 62.5142 68.4668 62.6924 68.3936 62.9023C68.3252 63.1123 68.2861 63.3516 68.2764 63.6201L67.8516 63.4883C67.8516 62.9756 67.9028 62.5044 68.0054 62.0747C68.1079 61.6401 68.2568 61.2617 68.4521 60.9395C68.6523 60.6172 68.8965 60.3682 69.1846 60.1924C69.4727 60.0166 69.8022 59.9287 70.1733 59.9287C70.2905 59.9287 70.4102 59.9385 70.5322 59.958C70.6543 59.9727 70.7544 59.9946 70.8325 60.0239ZM9.22852 89.4985C9.4873 89.4985 9.7168 89.4497 9.91699 89.3521C10.1172 89.2495 10.2734 89.1079 10.3857 88.9272C10.5029 88.7417 10.564 88.5244 10.5688 88.2754H12.5537C12.5488 88.832 12.3999 89.3276 12.1069 89.7622C11.814 90.1919 11.4209 90.5312 10.9277 90.7803C10.4346 91.0244 9.88281 91.1465 9.27246 91.1465C8.65723 91.1465 8.12012 91.0439 7.66113 90.8389C7.20703 90.6338 6.82861 90.3506 6.52588 89.9893C6.22314 89.623 5.99609 89.1982 5.84473 88.7148C5.69336 88.2266 5.61768 87.7041 5.61768 87.1475V86.9351C5.61768 86.3735 5.69336 85.8511 5.84473 85.3677C5.99609 84.8794 6.22314 84.4546 6.52588 84.0933C6.82861 83.7271 7.20703 83.4414 7.66113 83.2363C8.11523 83.0312 8.64746 82.9287 9.25781 82.9287C9.90723 82.9287 10.4761 83.0532 10.9644 83.3022C11.4575 83.5513 11.8433 83.9077 12.1216 84.3716C12.4048 84.8306 12.5488 85.375 12.5537 86.0049H10.5688C10.564 85.7412 10.5078 85.502 10.4004 85.2871C10.2979 85.0723 10.1465 84.9014 9.94629 84.7744C9.75098 84.6426 9.50928 84.5767 9.22119 84.5767C8.91357 84.5767 8.66211 84.6426 8.4668 84.7744C8.27148 84.9014 8.12012 85.0771 8.0127 85.3018C7.90527 85.5215 7.82959 85.7729 7.78564 86.0562C7.74658 86.3345 7.72705 86.6274 7.72705 86.9351V87.1475C7.72705 87.4551 7.74658 87.7505 7.78564 88.0337C7.82471 88.3169 7.89795 88.5684 8.00537 88.7881C8.11768 89.0078 8.27148 89.1812 8.4668 89.3081C8.66211 89.4351 8.91602 89.4985 9.22852 89.4985ZM16.0034 79.75V91H13.8867V79.75H16.0034ZM19.9731 83.0752V91H17.8564V83.0752H19.9731ZM17.7246 81.0098C17.7246 80.7021 17.832 80.4482 18.0469 80.248C18.2617 80.0479 18.5498 79.9478 18.9111 79.9478C19.2676 79.9478 19.5532 80.0479 19.7681 80.248C19.9878 80.4482 20.0977 80.7021 20.0977 81.0098C20.0977 81.3174 19.9878 81.5713 19.7681 81.7715C19.5532 81.9717 19.2676 82.0718 18.9111 82.0718C18.5498 82.0718 18.2617 81.9717 18.0469 81.7715C17.832 81.5713 17.7246 81.3174 17.7246 81.0098ZM25.3638 91.1465C24.7485 91.1465 24.1968 91.0488 23.7085 90.8535C23.2202 90.6533 22.8052 90.3774 22.4634 90.0259C22.1265 89.6743 21.8677 89.2666 21.687 88.8027C21.5063 88.334 21.416 87.8359 21.416 87.3086V87.0156C21.416 86.415 21.5015 85.8657 21.6724 85.3677C21.8433 84.8696 22.0874 84.4375 22.4048 84.0713C22.7271 83.7051 23.1177 83.4243 23.5767 83.229C24.0356 83.0288 24.5532 82.9287 25.1294 82.9287C25.6909 82.9287 26.189 83.0215 26.6235 83.207C27.0581 83.3926 27.4219 83.6562 27.7148 83.998C28.0127 84.3398 28.2373 84.75 28.3887 85.2285C28.54 85.7021 28.6157 86.2295 28.6157 86.8105V87.6895H22.3169V86.2832H26.543V86.1221C26.543 85.8291 26.4893 85.5679 26.3818 85.3384C26.2793 85.104 26.123 84.9185 25.9131 84.7817C25.7031 84.645 25.4346 84.5767 25.1074 84.5767C24.8291 84.5767 24.5898 84.6377 24.3896 84.7598C24.1895 84.8818 24.0259 85.0527 23.8989 85.2725C23.7769 85.4922 23.6841 85.751 23.6206 86.0488C23.562 86.3418 23.5327 86.6641 23.5327 87.0156V87.3086C23.5327 87.626 23.5767 87.9189 23.6646 88.1875C23.7573 88.4561 23.8867 88.688 24.0527 88.8833C24.2236 89.0786 24.4287 89.23 24.668 89.3374C24.9121 89.4448 25.188 89.4985 25.4956 89.4985C25.8765 89.4985 26.2305 89.4253 26.5576 89.2788C26.8896 89.1274 27.1753 88.9004 27.4146 88.5977L28.4399 89.7109C28.2739 89.9502 28.0469 90.1797 27.7588 90.3994C27.4756 90.6191 27.1338 90.7998 26.7334 90.9414C26.333 91.0781 25.8765 91.1465 25.3638 91.1465ZM31.8823 84.7671V91H29.7729V83.0752H31.7505L31.8823 84.7671ZM31.5747 86.7593H31.0034C31.0034 86.1733 31.0791 85.646 31.2305 85.1772C31.3818 84.7036 31.5942 84.3008 31.8677 83.9688C32.1411 83.6318 32.4658 83.3755 32.8418 83.1997C33.2227 83.019 33.6475 82.9287 34.1162 82.9287C34.4873 82.9287 34.8267 82.9824 35.1343 83.0898C35.4419 83.1973 35.7056 83.3682 35.9253 83.6025C36.1499 83.8369 36.3208 84.147 36.438 84.5327C36.5601 84.9185 36.6211 85.3896 36.6211 85.9463V91H34.4971V85.939C34.4971 85.5874 34.4482 85.314 34.3506 85.1187C34.2529 84.9233 34.1089 84.7866 33.9185 84.7085C33.7329 84.6255 33.5034 84.584 33.23 84.584C32.9468 84.584 32.7002 84.6401 32.4902 84.7524C32.2852 84.8647 32.1143 85.021 31.9775 85.2212C31.8457 85.4165 31.7456 85.646 31.6772 85.9097C31.6089 86.1733 31.5747 86.4565 31.5747 86.7593ZM42.1069 83.0752V84.5693H37.4927V83.0752H42.1069ZM38.6353 81.1196H40.7446V88.6123C40.7446 88.8418 40.7739 89.0176 40.8325 89.1396C40.896 89.2617 40.9888 89.3472 41.1108 89.396C41.2329 89.4399 41.3867 89.4619 41.5723 89.4619C41.7041 89.4619 41.8213 89.457 41.9238 89.4473C42.0312 89.4326 42.1216 89.418 42.1948 89.4033L42.2021 90.9561C42.0215 91.0146 41.8262 91.061 41.6162 91.0952C41.4062 91.1294 41.1743 91.1465 40.9204 91.1465C40.4565 91.1465 40.0513 91.0708 39.7046 90.9194C39.3628 90.7632 39.0991 90.5142 38.9136 90.1724C38.728 89.8306 38.6353 89.3813 38.6353 88.8247V81.1196ZM46.9556 91.1465C46.3403 91.1465 45.7886 91.0488 45.3003 90.8535C44.812 90.6533 44.397 90.3774 44.0552 90.0259C43.7183 89.6743 43.4595 89.2666 43.2788 88.8027C43.0981 88.334 43.0078 87.8359 43.0078 87.3086V87.0156C43.0078 86.415 43.0933 85.8657 43.2642 85.3677C43.4351 84.8696 43.6792 84.4375 43.9966 84.0713C44.3188 83.7051 44.7095 83.4243 45.1685 83.229C45.6274 83.0288 46.145 82.9287 46.7212 82.9287C47.2827 82.9287 47.7808 83.0215 48.2153 83.207C48.6499 83.3926 49.0137 83.6562 49.3066 83.998C49.6045 84.3398 49.8291 84.75 49.9805 85.2285C50.1318 85.7021 50.2075 86.2295 50.2075 86.8105V87.6895H43.9087V86.2832H48.1348V86.1221C48.1348 85.8291 48.0811 85.5679 47.9736 85.3384C47.8711 85.104 47.7148 84.9185 47.5049 84.7817C47.2949 84.645 47.0264 84.5767 46.6992 84.5767C46.4209 84.5767 46.1816 84.6377 45.9814 84.7598C45.7812 84.8818 45.6177 85.0527 45.4907 85.2725C45.3687 85.4922 45.2759 85.751 45.2124 86.0488C45.1538 86.3418 45.1245 86.6641 45.1245 87.0156V87.3086C45.1245 87.626 45.1685 87.9189 45.2563 88.1875C45.3491 88.4561 45.4785 88.688 45.6445 88.8833C45.8154 89.0786 46.0205 89.23 46.2598 89.3374C46.5039 89.4448 46.7798 89.4985 47.0874 89.4985C47.4683 89.4985 47.8223 89.4253 48.1494 89.2788C48.4814 89.1274 48.7671 88.9004 49.0063 88.5977L50.0317 89.7109C49.8657 89.9502 49.6387 90.1797 49.3506 90.3994C49.0674 90.6191 48.7256 90.7998 48.3252 90.9414C47.9248 91.0781 47.4683 91.1465 46.9556 91.1465Z" fill="white"/>
<ellipse cx="127.583" cy="46.25" rx="2.91667" ry="2.91667" stroke="#8F98FF" stroke-width="2" stroke-linecap="round"/>
<path fill-rule="evenodd" clip-rule="evenodd" d="M127.373 51.2276C126.074 51.2752 124.806 51.6372 123.739 52.2866C122.592 52.9854 121.718 53.9962 121.313 55.1965C121.136 55.7198 121.417 56.2872 121.94 56.4638C122.464 56.6405 123.031 56.3594 123.208 55.8362C123.44 55.1464 123.972 54.4871 124.78 53.9947C125.171 53.7566 125.61 53.5682 126.079 53.4371C126.16 52.5198 126.654 51.7209 127.373 51.2276Z" fill="#8F98FF"/>
<path d="M132.167 50.8333L132.167 56.6666" stroke="#8F98FF" stroke-width="2.5" stroke-linecap="round"/>
<path d="M134.667 53.3333L128.833 53.3333" stroke="#8F98FF" stroke-width="2.5" stroke-linecap="round"/>
</svg>
