<svg width="325" height="85" viewBox="0 0 325 85" fill="none" xmlns="http://www.w3.org/2000/svg">
<rect x="204.517" width="120.483" height="85" rx="10" fill="#C0E0FF"/>
<path fill-rule="evenodd" clip-rule="evenodd" d="M229.895 0C208.91 14.3158 196.002 51.8783 257.512 74.6844C269.023 78.9524 281.234 82.3376 293.614 85H10C4.47715 85 0 80.5229 0 75V10C0 4.47715 4.47715 0 10 0H229.895Z" fill="#00C4FF"/>
<path d="M21.4106 49.625V61H19.0669L14.4966 53.375V61H12.1528V49.625H14.4966L19.0747 57.2578V49.625H21.4106ZM22.9497 56.8594V56.6953C22.9497 56.0755 23.0382 55.5052 23.2153 54.9844C23.3924 54.4583 23.6502 54.0026 23.9888 53.6172C24.3273 53.2318 24.744 52.9323 25.2388 52.7188C25.7336 52.5 26.3013 52.3906 26.9419 52.3906C27.5825 52.3906 28.1528 52.5 28.6528 52.7188C29.1528 52.9323 29.5721 53.2318 29.9106 53.6172C30.2544 54.0026 30.5148 54.4583 30.6919 54.9844C30.869 55.5052 30.9575 56.0755 30.9575 56.6953V56.8594C30.9575 57.474 30.869 58.0443 30.6919 58.5703C30.5148 59.0911 30.2544 59.5469 29.9106 59.9375C29.5721 60.3229 29.1554 60.6224 28.6606 60.8359C28.1659 61.0495 27.5981 61.1562 26.9575 61.1562C26.3169 61.1562 25.7466 61.0495 25.2466 60.8359C24.7518 60.6224 24.3325 60.3229 23.9888 59.9375C23.6502 59.5469 23.3924 59.0911 23.2153 58.5703C23.0382 58.0443 22.9497 57.474 22.9497 56.8594ZM25.1997 56.6953V56.8594C25.1997 57.2135 25.231 57.5443 25.2935 57.8516C25.356 58.1589 25.4549 58.4297 25.5903 58.6641C25.731 58.8932 25.9132 59.0729 26.1372 59.2031C26.3612 59.3333 26.6346 59.3984 26.9575 59.3984C27.27 59.3984 27.5382 59.3333 27.7622 59.2031C27.9862 59.0729 28.1659 58.8932 28.3013 58.6641C28.4367 58.4297 28.5356 58.1589 28.5981 57.8516C28.6659 57.5443 28.6997 57.2135 28.6997 56.8594V56.6953C28.6997 56.3516 28.6659 56.0286 28.5981 55.7266C28.5356 55.4193 28.4341 55.1484 28.2935 54.9141C28.158 54.6745 27.9784 54.487 27.7544 54.3516C27.5304 54.2161 27.2596 54.1484 26.9419 54.1484C26.6242 54.1484 26.3534 54.2161 26.1294 54.3516C25.9106 54.487 25.731 54.6745 25.5903 54.9141C25.4549 55.1484 25.356 55.4193 25.2935 55.7266C25.231 56.0286 25.1997 56.3516 25.1997 56.6953ZM35.0903 59.3594L36.9653 52.5469H39.3169L36.4653 61H35.0435L35.0903 59.3594ZM33.8013 52.5469L35.6841 59.3672L35.7231 61H34.2935L31.4419 52.5469H33.8013ZM44.7622 59.0938V55.3281C44.7622 55.0573 44.7179 54.8255 44.6294 54.6328C44.5409 54.4349 44.4028 54.2812 44.2153 54.1719C44.033 54.0625 43.7961 54.0078 43.5044 54.0078C43.2544 54.0078 43.0382 54.0521 42.856 54.1406C42.6737 54.224 42.533 54.3464 42.4341 54.5078C42.3351 54.6641 42.2856 54.849 42.2856 55.0625H40.0356C40.0356 54.7031 40.119 54.362 40.2856 54.0391C40.4523 53.7161 40.6945 53.4323 41.0122 53.1875C41.3299 52.9375 41.7075 52.7422 42.145 52.6016C42.5877 52.4609 43.0825 52.3906 43.6294 52.3906C44.2856 52.3906 44.869 52.5 45.3794 52.7188C45.8898 52.9375 46.2909 53.2656 46.5825 53.7031C46.8794 54.1406 47.0278 54.6875 47.0278 55.3438V58.9609C47.0278 59.4245 47.0565 59.8047 47.1138 60.1016C47.1711 60.3932 47.2544 60.6484 47.3638 60.8672V61H45.0903C44.981 60.7708 44.8976 60.4844 44.8403 60.1406C44.7882 59.7917 44.7622 59.4427 44.7622 59.0938ZM45.0591 55.8516L45.0747 57.125H43.8169C43.52 57.125 43.2622 57.1589 43.0435 57.2266C42.8247 57.2943 42.645 57.3906 42.5044 57.5156C42.3638 57.6354 42.2596 57.776 42.1919 57.9375C42.1294 58.099 42.0981 58.276 42.0981 58.4688C42.0981 58.6615 42.1424 58.8359 42.231 58.9922C42.3195 59.1432 42.4471 59.263 42.6138 59.3516C42.7804 59.4349 42.9757 59.4766 43.1997 59.4766C43.5382 59.4766 43.8325 59.4089 44.0825 59.2734C44.3325 59.138 44.5252 58.9714 44.6606 58.7734C44.8013 58.5755 44.8742 58.388 44.8794 58.2109L45.4731 59.1641C45.3898 59.3776 45.2752 59.599 45.1294 59.8281C44.9888 60.0573 44.8091 60.2734 44.5903 60.4766C44.3716 60.6745 44.1086 60.8385 43.8013 60.9688C43.494 61.0938 43.1294 61.1562 42.7075 61.1562C42.1711 61.1562 41.6841 61.0495 41.2466 60.8359C40.8143 60.6172 40.4705 60.3177 40.2153 59.9375C39.9653 59.5521 39.8403 59.1146 39.8403 58.625C39.8403 58.1823 39.9237 57.7891 40.0903 57.4453C40.257 57.1016 40.5018 56.8125 40.8247 56.5781C41.1528 56.3385 41.5617 56.1589 42.0513 56.0391C42.5409 55.9141 43.1086 55.8516 43.7544 55.8516H45.0591ZM53.3325 58.6641C53.3325 58.5026 53.2856 58.3568 53.1919 58.2266C53.0981 58.0964 52.9237 57.9766 52.6685 57.8672C52.4185 57.7526 52.0565 57.6484 51.5825 57.5547C51.1554 57.4609 50.757 57.3438 50.3872 57.2031C50.0226 57.0573 49.7049 56.8828 49.4341 56.6797C49.1685 56.4766 48.9601 56.237 48.8091 55.9609C48.658 55.6797 48.5825 55.3594 48.5825 55C48.5825 54.6458 48.658 54.3125 48.8091 54C48.9653 53.6875 49.1867 53.4115 49.4731 53.1719C49.7648 52.9271 50.119 52.737 50.5356 52.6016C50.9575 52.4609 51.4315 52.3906 51.9575 52.3906C52.6919 52.3906 53.3221 52.5078 53.8481 52.7422C54.3794 52.9766 54.7856 53.2995 55.0669 53.7109C55.3534 54.1172 55.4966 54.5807 55.4966 55.1016H53.2466C53.2466 54.8828 53.1997 54.6875 53.106 54.5156C53.0174 54.3385 52.8768 54.2005 52.6841 54.1016C52.4966 53.9974 52.2518 53.9453 51.9497 53.9453C51.6997 53.9453 51.4836 53.9896 51.3013 54.0781C51.119 54.1615 50.9784 54.276 50.8794 54.4219C50.7856 54.5625 50.7388 54.7188 50.7388 54.8906C50.7388 55.0208 50.7648 55.138 50.8169 55.2422C50.8742 55.3411 50.9653 55.4323 51.0903 55.5156C51.2153 55.599 51.3768 55.6771 51.5747 55.75C51.7778 55.8177 52.0278 55.8802 52.3247 55.9375C52.9341 56.0625 53.4784 56.2266 53.9575 56.4297C54.4367 56.6276 54.8169 56.8984 55.0981 57.2422C55.3794 57.5807 55.52 58.026 55.52 58.5781C55.52 58.9531 55.4367 59.2969 55.27 59.6094C55.1034 59.9219 54.8638 60.1953 54.5513 60.4297C54.2388 60.6589 53.8638 60.8385 53.4263 60.9688C52.994 61.0938 52.507 61.1562 51.9653 61.1562C51.1789 61.1562 50.5122 61.0156 49.9653 60.7344C49.4237 60.4531 49.0122 60.0964 48.731 59.6641C48.4549 59.2266 48.3169 58.7786 48.3169 58.3203H50.4497C50.4601 58.6276 50.5382 58.875 50.6841 59.0625C50.8351 59.25 51.0252 59.3854 51.2544 59.4688C51.4888 59.5521 51.7414 59.5938 52.0122 59.5938C52.3039 59.5938 52.5461 59.5547 52.7388 59.4766C52.9315 59.3932 53.0773 59.2839 53.1763 59.1484C53.2804 59.0078 53.3325 58.8464 53.3325 58.6641ZM63.7778 61H61.52V52.1641C61.52 51.4453 61.6659 50.8385 61.9575 50.3438C62.2544 49.849 62.6763 49.474 63.2231 49.2188C63.7752 48.9635 64.4419 48.8359 65.2231 48.8359C65.6659 48.8359 66.0955 48.8802 66.5122 48.9688C66.9289 49.0521 67.3586 49.1615 67.8013 49.2969L67.4731 51.1016C67.1867 51.013 66.8794 50.9297 66.5513 50.8516C66.2231 50.7734 65.8273 50.7344 65.3638 50.7344C64.8429 50.7344 64.4471 50.8568 64.1763 51.1016C63.9106 51.3411 63.7778 51.6953 63.7778 52.1641V61ZM65.4575 52.5469V54.1406H60.2622V52.5469H65.4575ZM68.8481 52.5469V61H66.5903V52.5469H68.8481ZM74.2231 59.3984C74.4992 59.3984 74.744 59.3464 74.9575 59.2422C75.1711 59.1328 75.3377 58.9818 75.4575 58.7891C75.5825 58.5911 75.6476 58.3594 75.6528 58.0938H77.77C77.7648 58.6875 77.606 59.2161 77.2935 59.6797C76.981 60.138 76.5617 60.5 76.0356 60.7656C75.5096 61.026 74.9211 61.1562 74.27 61.1562C73.6138 61.1562 73.0409 61.0469 72.5513 60.8281C72.0669 60.6094 71.6632 60.3073 71.3403 59.9219C71.0174 59.5312 70.7752 59.0781 70.6138 58.5625C70.4523 58.0417 70.3716 57.4844 70.3716 56.8906V56.6641C70.3716 56.0651 70.4523 55.5078 70.6138 54.9922C70.7752 54.4714 71.0174 54.0182 71.3403 53.6328C71.6632 53.2422 72.0669 52.9375 72.5513 52.7188C73.0356 52.5 73.6034 52.3906 74.2544 52.3906C74.9471 52.3906 75.5539 52.5234 76.0747 52.7891C76.6007 53.0547 77.0122 53.4349 77.3091 53.9297C77.6112 54.4193 77.7648 55 77.77 55.6719H75.6528C75.6476 55.3906 75.5877 55.1354 75.4731 54.9062C75.3638 54.6771 75.2023 54.4948 74.9888 54.3594C74.7804 54.2188 74.5226 54.1484 74.2153 54.1484C73.8872 54.1484 73.619 54.2188 73.4106 54.3594C73.2023 54.4948 73.0409 54.6823 72.9263 54.9219C72.8117 55.1562 72.731 55.4245 72.6841 55.7266C72.6424 56.0234 72.6216 56.3359 72.6216 56.6641V56.8906C72.6216 57.2188 72.6424 57.5339 72.6841 57.8359C72.7257 58.138 72.8039 58.4062 72.9185 58.6406C73.0382 58.875 73.2023 59.0599 73.4106 59.1953C73.619 59.3307 73.8898 59.3984 74.2231 59.3984ZM81.27 49V61H79.02V49H81.27ZM80.9497 56.4766H80.3325C80.3377 55.888 80.4159 55.3464 80.5669 54.8516C80.7179 54.3516 80.9341 53.9193 81.2153 53.5547C81.4966 53.1849 81.8325 52.8984 82.2231 52.6953C82.619 52.4922 83.0565 52.3906 83.5356 52.3906C83.9523 52.3906 84.3299 52.4505 84.6685 52.5703C85.0122 52.6849 85.3065 52.8724 85.5513 53.1328C85.8013 53.388 85.994 53.724 86.1294 54.1406C86.2648 54.5573 86.3325 55.0625 86.3325 55.6562V61H84.0669V55.6406C84.0669 55.2656 84.0122 54.9714 83.9028 54.7578C83.7987 54.5391 83.645 54.3854 83.4419 54.2969C83.244 54.2031 82.9992 54.1562 82.7075 54.1562C82.3846 54.1562 82.1086 54.2161 81.8794 54.3359C81.6554 54.4557 81.4757 54.6224 81.3403 54.8359C81.2049 55.0443 81.106 55.2891 81.0435 55.5703C80.981 55.8516 80.9497 56.1536 80.9497 56.4766ZM92.606 59.0938V55.3281C92.606 55.0573 92.5617 54.8255 92.4731 54.6328C92.3846 54.4349 92.2466 54.2812 92.0591 54.1719C91.8768 54.0625 91.6398 54.0078 91.3481 54.0078C91.0981 54.0078 90.882 54.0521 90.6997 54.1406C90.5174 54.224 90.3768 54.3464 90.2778 54.5078C90.1789 54.6641 90.1294 54.849 90.1294 55.0625H87.8794C87.8794 54.7031 87.9627 54.362 88.1294 54.0391C88.2961 53.7161 88.5382 53.4323 88.856 53.1875C89.1737 52.9375 89.5513 52.7422 89.9888 52.6016C90.4315 52.4609 90.9263 52.3906 91.4731 52.3906C92.1294 52.3906 92.7127 52.5 93.2231 52.7188C93.7336 52.9375 94.1346 53.2656 94.4263 53.7031C94.7231 54.1406 94.8716 54.6875 94.8716 55.3438V58.9609C94.8716 59.4245 94.9002 59.8047 94.9575 60.1016C95.0148 60.3932 95.0981 60.6484 95.2075 60.8672V61H92.9341C92.8247 60.7708 92.7414 60.4844 92.6841 60.1406C92.632 59.7917 92.606 59.4427 92.606 59.0938ZM92.9028 55.8516L92.9185 57.125H91.6606C91.3638 57.125 91.106 57.1589 90.8872 57.2266C90.6685 57.2943 90.4888 57.3906 90.3481 57.5156C90.2075 57.6354 90.1034 57.776 90.0356 57.9375C89.9731 58.099 89.9419 58.276 89.9419 58.4688C89.9419 58.6615 89.9862 58.8359 90.0747 58.9922C90.1632 59.1432 90.2909 59.263 90.4575 59.3516C90.6242 59.4349 90.8195 59.4766 91.0435 59.4766C91.382 59.4766 91.6763 59.4089 91.9263 59.2734C92.1763 59.138 92.369 58.9714 92.5044 58.7734C92.645 58.5755 92.7179 58.388 92.7231 58.2109L93.3169 59.1641C93.2336 59.3776 93.119 59.599 92.9731 59.8281C92.8325 60.0573 92.6528 60.2734 92.4341 60.4766C92.2153 60.6745 91.9523 60.8385 91.645 60.9688C91.3377 61.0938 90.9731 61.1562 90.5513 61.1562C90.0148 61.1562 89.5278 61.0495 89.0903 60.8359C88.658 60.6172 88.3143 60.3177 88.0591 59.9375C87.8091 59.5521 87.6841 59.1146 87.6841 58.625C87.6841 58.1823 87.7674 57.7891 87.9341 57.4453C88.1007 57.1016 88.3455 56.8125 88.6685 56.5781C88.9966 56.3385 89.4054 56.1589 89.895 56.0391C90.3846 55.9141 90.9523 55.8516 91.5981 55.8516H92.9028ZM101.176 58.6641C101.176 58.5026 101.129 58.3568 101.036 58.2266C100.942 58.0964 100.767 57.9766 100.512 57.8672C100.262 57.7526 99.9002 57.6484 99.4263 57.5547C98.9992 57.4609 98.6007 57.3438 98.231 57.2031C97.8664 57.0573 97.5487 56.8828 97.2778 56.6797C97.0122 56.4766 96.8039 56.237 96.6528 55.9609C96.5018 55.6797 96.4263 55.3594 96.4263 55C96.4263 54.6458 96.5018 54.3125 96.6528 54C96.8091 53.6875 97.0304 53.4115 97.3169 53.1719C97.6086 52.9271 97.9627 52.737 98.3794 52.6016C98.8013 52.4609 99.2752 52.3906 99.8013 52.3906C100.536 52.3906 101.166 52.5078 101.692 52.7422C102.223 52.9766 102.629 53.2995 102.911 53.7109C103.197 54.1172 103.34 54.5807 103.34 55.1016H101.09C101.09 54.8828 101.043 54.6875 100.95 54.5156C100.861 54.3385 100.721 54.2005 100.528 54.1016C100.34 53.9974 100.096 53.9453 99.7935 53.9453C99.5435 53.9453 99.3273 53.9896 99.145 54.0781C98.9627 54.1615 98.8221 54.276 98.7231 54.4219C98.6294 54.5625 98.5825 54.7188 98.5825 54.8906C98.5825 55.0208 98.6086 55.138 98.6606 55.2422C98.7179 55.3411 98.8091 55.4323 98.9341 55.5156C99.0591 55.599 99.2205 55.6771 99.4185 55.75C99.6216 55.8177 99.8716 55.8802 100.168 55.9375C100.778 56.0625 101.322 56.2266 101.801 56.4297C102.28 56.6276 102.661 56.8984 102.942 57.2422C103.223 57.5807 103.364 58.026 103.364 58.5781C103.364 58.9531 103.28 59.2969 103.114 59.6094C102.947 59.9219 102.708 60.1953 102.395 60.4297C102.083 60.6589 101.708 60.8385 101.27 60.9688C100.838 61.0938 100.351 61.1562 99.8091 61.1562C99.0226 61.1562 98.356 61.0156 97.8091 60.7344C97.2674 60.4531 96.856 60.0964 96.5747 59.6641C96.2987 59.2266 96.1606 58.7786 96.1606 58.3203H98.2935C98.3039 58.6276 98.382 58.875 98.5278 59.0625C98.6789 59.25 98.869 59.3854 99.0981 59.4688C99.3325 59.5521 99.5851 59.5938 99.856 59.5938C100.148 59.5938 100.39 59.5547 100.583 59.4766C100.775 59.3932 100.921 59.2839 101.02 59.1484C101.124 59.0078 101.176 58.8464 101.176 58.6641ZM111.059 54.3906V61H108.809V52.5469H110.926L111.059 54.3906ZM113.606 52.4922L113.567 54.5781C113.458 54.5625 113.325 54.5495 113.168 54.5391C113.017 54.5234 112.879 54.5156 112.754 54.5156C112.437 54.5156 112.161 54.5573 111.926 54.6406C111.697 54.7188 111.504 54.8359 111.348 54.9922C111.197 55.1484 111.083 55.3385 111.004 55.5625C110.931 55.7865 110.89 56.0417 110.879 56.3281L110.426 56.1875C110.426 55.6406 110.481 55.138 110.59 54.6797C110.7 54.2161 110.859 53.8125 111.067 53.4688C111.28 53.125 111.541 52.8594 111.848 52.6719C112.155 52.4844 112.507 52.3906 112.903 52.3906C113.028 52.3906 113.155 52.401 113.286 52.4219C113.416 52.4375 113.523 52.4609 113.606 52.4922ZM118.403 61.1562C117.747 61.1562 117.158 61.0521 116.637 60.8438C116.116 60.6302 115.674 60.3359 115.309 59.9609C114.95 59.5859 114.674 59.151 114.481 58.6562C114.288 58.1562 114.192 57.625 114.192 57.0625V56.75C114.192 56.1094 114.283 55.5234 114.465 54.9922C114.648 54.4609 114.908 54 115.247 53.6094C115.59 53.2188 116.007 52.9193 116.497 52.7109C116.986 52.4974 117.538 52.3906 118.153 52.3906C118.752 52.3906 119.283 52.4896 119.747 52.6875C120.21 52.8854 120.598 53.1667 120.911 53.5312C121.228 53.8958 121.468 54.3333 121.629 54.8438C121.791 55.349 121.872 55.9115 121.872 56.5312V57.4688H115.153V55.9688H119.661V55.7969C119.661 55.4844 119.603 55.2057 119.489 54.9609C119.379 54.7109 119.213 54.513 118.989 54.3672C118.765 54.2214 118.478 54.1484 118.129 54.1484C117.833 54.1484 117.577 54.2135 117.364 54.3438C117.15 54.474 116.976 54.6562 116.84 54.8906C116.71 55.125 116.611 55.401 116.543 55.7188C116.481 56.0312 116.45 56.375 116.45 56.75V57.0625C116.45 57.401 116.497 57.7135 116.59 58C116.689 58.2865 116.827 58.5339 117.004 58.7422C117.187 58.9505 117.405 59.112 117.661 59.2266C117.921 59.3411 118.215 59.3984 118.543 59.3984C118.95 59.3984 119.327 59.3203 119.676 59.1641C120.03 59.0026 120.335 58.7604 120.59 58.4375L121.684 59.625C121.507 59.8802 121.265 60.125 120.958 60.3594C120.655 60.5938 120.291 60.7865 119.864 60.9375C119.437 61.0833 118.95 61.1562 118.403 61.1562ZM126.645 59.3984C126.921 59.3984 127.166 59.3464 127.379 59.2422C127.593 59.1328 127.76 58.9818 127.879 58.7891C128.004 58.5911 128.069 58.3594 128.075 58.0938H130.192C130.187 58.6875 130.028 59.2161 129.715 59.6797C129.403 60.138 128.984 60.5 128.458 60.7656C127.931 61.026 127.343 61.1562 126.692 61.1562C126.036 61.1562 125.463 61.0469 124.973 60.8281C124.489 60.6094 124.085 60.3073 123.762 59.9219C123.439 59.5312 123.197 59.0781 123.036 58.5625C122.874 58.0417 122.793 57.4844 122.793 56.8906V56.6641C122.793 56.0651 122.874 55.5078 123.036 54.9922C123.197 54.4714 123.439 54.0182 123.762 53.6328C124.085 53.2422 124.489 52.9375 124.973 52.7188C125.458 52.5 126.025 52.3906 126.676 52.3906C127.369 52.3906 127.976 52.5234 128.497 52.7891C129.023 53.0547 129.434 53.4349 129.731 53.9297C130.033 54.4193 130.187 55 130.192 55.6719H128.075C128.069 55.3906 128.01 55.1354 127.895 54.9062C127.786 54.6771 127.624 54.4948 127.411 54.3594C127.202 54.2188 126.944 54.1484 126.637 54.1484C126.309 54.1484 126.041 54.2188 125.833 54.3594C125.624 54.4948 125.463 54.6823 125.348 54.9219C125.234 55.1562 125.153 55.4245 125.106 55.7266C125.064 56.0234 125.043 56.3359 125.043 56.6641V56.8906C125.043 57.2188 125.064 57.5339 125.106 57.8359C125.148 58.138 125.226 58.4062 125.34 58.6406C125.46 58.875 125.624 59.0599 125.833 59.1953C126.041 59.3307 126.312 59.3984 126.645 59.3984ZM135.387 61.1562C134.731 61.1562 134.142 61.0521 133.622 60.8438C133.101 60.6302 132.658 60.3359 132.293 59.9609C131.934 59.5859 131.658 59.151 131.465 58.6562C131.273 58.1562 131.176 57.625 131.176 57.0625V56.75C131.176 56.1094 131.267 55.5234 131.45 54.9922C131.632 54.4609 131.892 54 132.231 53.6094C132.575 53.2188 132.991 52.9193 133.481 52.7109C133.971 52.4974 134.523 52.3906 135.137 52.3906C135.736 52.3906 136.267 52.4896 136.731 52.6875C137.194 52.8854 137.583 53.1667 137.895 53.5312C138.213 53.8958 138.452 54.3333 138.614 54.8438C138.775 55.349 138.856 55.9115 138.856 56.5312V57.4688H132.137V55.9688H136.645V55.7969C136.645 55.4844 136.588 55.2057 136.473 54.9609C136.364 54.7109 136.197 54.513 135.973 54.3672C135.749 54.2214 135.463 54.1484 135.114 54.1484C134.817 54.1484 134.562 54.2135 134.348 54.3438C134.135 54.474 133.96 54.6562 133.825 54.8906C133.694 55.125 133.596 55.401 133.528 55.7188C133.465 56.0312 133.434 56.375 133.434 56.75V57.0625C133.434 57.401 133.481 57.7135 133.575 58C133.674 58.2865 133.812 58.5339 133.989 58.7422C134.171 58.9505 134.39 59.112 134.645 59.2266C134.905 59.3411 135.2 59.3984 135.528 59.3984C135.934 59.3984 136.312 59.3203 136.661 59.1641C137.015 59.0026 137.319 58.7604 137.575 58.4375L138.668 59.625C138.491 59.8802 138.249 60.125 137.942 60.3594C137.64 60.5938 137.275 60.7865 136.848 60.9375C136.421 61.0833 135.934 61.1562 135.387 61.1562ZM140.137 49H142.387V59.0625L142.161 61H140.137V49ZM147.739 56.6875V56.8516C147.739 57.4818 147.671 58.0599 147.536 58.5859C147.405 59.112 147.202 59.5677 146.926 59.9531C146.65 60.3333 146.306 60.6302 145.895 60.8438C145.489 61.0521 145.01 61.1562 144.458 61.1562C143.942 61.1562 143.494 61.0521 143.114 60.8438C142.739 60.6354 142.424 60.3411 142.168 59.9609C141.913 59.5807 141.708 59.1354 141.551 58.625C141.395 58.1146 141.278 57.5573 141.2 56.9531V56.5938C141.278 55.9896 141.395 55.4323 141.551 54.9219C141.708 54.4115 141.913 53.9661 142.168 53.5859C142.424 53.2057 142.739 52.9115 143.114 52.7031C143.489 52.4948 143.931 52.3906 144.442 52.3906C144.999 52.3906 145.484 52.4974 145.895 52.7109C146.312 52.9193 146.655 53.2161 146.926 53.6016C147.202 53.9818 147.405 54.4349 147.536 54.9609C147.671 55.4818 147.739 56.0573 147.739 56.6875ZM145.489 56.8516V56.6875C145.489 56.3438 145.463 56.0208 145.411 55.7188C145.364 55.4115 145.28 55.1432 145.161 54.9141C145.041 54.6797 144.877 54.4948 144.668 54.3594C144.465 54.224 144.202 54.1562 143.879 54.1562C143.572 54.1562 143.312 54.2083 143.098 54.3125C142.885 54.4167 142.708 54.5625 142.567 54.75C142.431 54.9375 142.33 55.1615 142.262 55.4219C142.194 55.6771 142.153 55.9583 142.137 56.2656V57.2891C142.153 57.7005 142.221 58.0651 142.34 58.3828C142.465 58.6953 142.653 58.9427 142.903 59.125C143.158 59.3021 143.489 59.3906 143.895 59.3906C144.213 59.3906 144.476 59.3281 144.684 59.2031C144.892 59.0781 145.054 58.901 145.168 58.6719C145.288 58.4427 145.372 58.1745 145.418 57.8672C145.465 57.5547 145.489 57.2161 145.489 56.8516ZM151.512 52.5469V61H149.254V52.5469H151.512ZM149.114 50.3438C149.114 50.0156 149.228 49.7448 149.458 49.5312C149.687 49.3177 149.994 49.2109 150.379 49.2109C150.76 49.2109 151.064 49.3177 151.293 49.5312C151.528 49.7448 151.645 50.0156 151.645 50.3438C151.645 50.6719 151.528 50.9427 151.293 51.1562C151.064 51.3698 150.76 51.4766 150.379 51.4766C149.994 51.4766 149.687 51.3698 149.458 51.1562C149.228 50.9427 149.114 50.6719 149.114 50.3438ZM158.364 59.1562V49H160.629V61H158.59L158.364 59.1562ZM153.02 56.875V56.7109C153.02 56.0651 153.093 55.4792 153.239 54.9531C153.385 54.4219 153.598 53.9661 153.879 53.5859C154.161 53.2057 154.507 52.9115 154.918 52.7031C155.33 52.4948 155.799 52.3906 156.325 52.3906C156.819 52.3906 157.252 52.4948 157.622 52.7031C157.997 52.9115 158.314 53.2083 158.575 53.5938C158.84 53.974 159.054 54.4245 159.215 54.9453C159.377 55.4609 159.494 56.026 159.567 56.6406V57C159.494 57.5885 159.377 58.1354 159.215 58.6406C159.054 59.1458 158.84 59.5885 158.575 59.9688C158.314 60.3438 157.997 60.6354 157.622 60.8438C157.247 61.0521 156.809 61.1562 156.309 61.1562C155.783 61.1562 155.314 61.0495 154.903 60.8359C154.497 60.6224 154.153 60.3229 153.872 59.9375C153.596 59.5521 153.385 59.099 153.239 58.5781C153.093 58.0573 153.02 57.4896 153.02 56.875ZM155.27 56.7109V56.875C155.27 57.224 155.296 57.5495 155.348 57.8516C155.405 58.1536 155.497 58.4219 155.622 58.6562C155.752 58.8854 155.918 59.0651 156.122 59.1953C156.33 59.3203 156.583 59.3828 156.879 59.3828C157.265 59.3828 157.583 59.2969 157.833 59.125C158.083 58.9479 158.273 58.7057 158.403 58.3984C158.538 58.0911 158.616 57.737 158.637 57.3359V56.3125C158.622 55.9844 158.575 55.6901 158.497 55.4297C158.424 55.1641 158.314 54.9375 158.168 54.75C158.028 54.5625 157.851 54.4167 157.637 54.3125C157.429 54.2083 157.181 54.1562 156.895 54.1562C156.603 54.1562 156.353 54.224 156.145 54.3594C155.937 54.4896 155.767 54.6693 155.637 54.8984C155.512 55.1276 155.418 55.3984 155.356 55.7109C155.299 56.0182 155.27 56.3516 155.27 56.7109ZM166.95 59.0938V55.3281C166.95 55.0573 166.905 54.8255 166.817 54.6328C166.728 54.4349 166.59 54.2812 166.403 54.1719C166.221 54.0625 165.984 54.0078 165.692 54.0078C165.442 54.0078 165.226 54.0521 165.043 54.1406C164.861 54.224 164.721 54.3464 164.622 54.5078C164.523 54.6641 164.473 54.849 164.473 55.0625H162.223C162.223 54.7031 162.306 54.362 162.473 54.0391C162.64 53.7161 162.882 53.4323 163.2 53.1875C163.517 52.9375 163.895 52.7422 164.333 52.6016C164.775 52.4609 165.27 52.3906 165.817 52.3906C166.473 52.3906 167.056 52.5 167.567 52.7188C168.077 52.9375 168.478 53.2656 168.77 53.7031C169.067 54.1406 169.215 54.6875 169.215 55.3438V58.9609C169.215 59.4245 169.244 59.8047 169.301 60.1016C169.359 60.3932 169.442 60.6484 169.551 60.8672V61H167.278C167.168 60.7708 167.085 60.4844 167.028 60.1406C166.976 59.7917 166.95 59.4427 166.95 59.0938ZM167.247 55.8516L167.262 57.125H166.004C165.708 57.125 165.45 57.1589 165.231 57.2266C165.012 57.2943 164.833 57.3906 164.692 57.5156C164.551 57.6354 164.447 57.776 164.379 57.9375C164.317 58.099 164.286 58.276 164.286 58.4688C164.286 58.6615 164.33 58.8359 164.418 58.9922C164.507 59.1432 164.635 59.263 164.801 59.3516C164.968 59.4349 165.163 59.4766 165.387 59.4766C165.726 59.4766 166.02 59.4089 166.27 59.2734C166.52 59.138 166.713 58.9714 166.848 58.7734C166.989 58.5755 167.062 58.388 167.067 58.2109L167.661 59.1641C167.577 59.3776 167.463 59.599 167.317 59.8281C167.176 60.0573 166.997 60.2734 166.778 60.4766C166.559 60.6745 166.296 60.8385 165.989 60.9688C165.681 61.0938 165.317 61.1562 164.895 61.1562C164.359 61.1562 163.872 61.0495 163.434 60.8359C163.002 60.6172 162.658 60.3177 162.403 59.9375C162.153 59.5521 162.028 59.1146 162.028 58.625C162.028 58.1823 162.111 57.7891 162.278 57.4453C162.444 57.1016 162.689 56.8125 163.012 56.5781C163.34 56.3385 163.749 56.1589 164.239 56.0391C164.728 55.9141 165.296 55.8516 165.942 55.8516H167.247ZM175.52 58.6641C175.52 58.5026 175.473 58.3568 175.379 58.2266C175.286 58.0964 175.111 57.9766 174.856 57.8672C174.606 57.7526 174.244 57.6484 173.77 57.5547C173.343 57.4609 172.944 57.3438 172.575 57.2031C172.21 57.0573 171.892 56.8828 171.622 56.6797C171.356 56.4766 171.148 56.237 170.997 55.9609C170.846 55.6797 170.77 55.3594 170.77 55C170.77 54.6458 170.846 54.3125 170.997 54C171.153 53.6875 171.374 53.4115 171.661 53.1719C171.952 52.9271 172.306 52.737 172.723 52.6016C173.145 52.4609 173.619 52.3906 174.145 52.3906C174.879 52.3906 175.51 52.5078 176.036 52.7422C176.567 52.9766 176.973 53.2995 177.254 53.7109C177.541 54.1172 177.684 54.5807 177.684 55.1016H175.434C175.434 54.8828 175.387 54.6875 175.293 54.5156C175.205 54.3385 175.064 54.2005 174.872 54.1016C174.684 53.9974 174.439 53.9453 174.137 53.9453C173.887 53.9453 173.671 53.9896 173.489 54.0781C173.306 54.1615 173.166 54.276 173.067 54.4219C172.973 54.5625 172.926 54.7188 172.926 54.8906C172.926 55.0208 172.952 55.138 173.004 55.2422C173.062 55.3411 173.153 55.4323 173.278 55.5156C173.403 55.599 173.564 55.6771 173.762 55.75C173.965 55.8177 174.215 55.8802 174.512 55.9375C175.122 56.0625 175.666 56.2266 176.145 56.4297C176.624 56.6276 177.004 56.8984 177.286 57.2422C177.567 57.5807 177.708 58.026 177.708 58.5781C177.708 58.9531 177.624 59.2969 177.458 59.6094C177.291 59.9219 177.051 60.1953 176.739 60.4297C176.426 60.6589 176.051 60.8385 175.614 60.9688C175.181 61.0938 174.694 61.1562 174.153 61.1562C173.366 61.1562 172.7 61.0156 172.153 60.7344C171.611 60.4531 171.2 60.0964 170.918 59.6641C170.642 59.2266 170.504 58.7786 170.504 58.3203H172.637C172.648 58.6276 172.726 58.875 172.872 59.0625C173.023 59.25 173.213 59.3854 173.442 59.4688C173.676 59.5521 173.929 59.5938 174.2 59.5938C174.491 59.5938 174.734 59.5547 174.926 59.4766C175.119 59.3932 175.265 59.2839 175.364 59.1484C175.468 59.0078 175.52 58.8464 175.52 58.6641Z" fill="#FBFBFB"/>
<path d="M299.351 19.75L296.528 23.9979C296.102 24.6384 295.143 24.5788 294.8 23.8905L294.452 23.1928C294.109 22.5046 293.15 22.445 292.725 23.0854L289.901 27.3333" stroke="#00C4FF" stroke-width="2" stroke-linecap="round" stroke-linejoin="round"/>
<rect x="285.176" y="14.3333" width="18.8993" height="17.3333" rx="2" stroke="#00C4FF" stroke-width="2"/>
</svg>
