<svg width="153" height="103" viewBox="0 0 153 103" fill="none" xmlns="http://www.w3.org/2000/svg">
<rect width="153" height="103" rx="10" fill="#C0E0FF"/>
<rect x="120.283" y="20" width="12.5094" height="17" rx="2" stroke="#00D6E1" stroke-width="2"/>
<path d="M128.943 26V24" stroke="#00D6E1" stroke-width="2" stroke-linecap="round"/>
<path d="M118.358 25H122.207" stroke="#00D6E1" stroke-width="2" stroke-linecap="round"/>
<path d="M118.358 29H122.207" stroke="#00D6E1" stroke-width="2" stroke-linecap="round"/>
<path d="M118.358 33H122.207" stroke="#00D6E1" stroke-width="2" stroke-linecap="round"/>
<path fill-rule="evenodd" clip-rule="evenodd" d="M89.7723 0C81.5779 17.3474 76.5373 62.8643 100.557 90.5C105.052 95.6718 109.82 99.7738 114.654 103H10C4.47716 103 0 98.5229 0 93V10C0 4.47715 4.47715 0 10 0H89.7723Z" fill="#00D6E1"/>
<path d="M15.7925 59.3359V70H13.5952L9.31055 62.8516V70H7.11328V59.3359H9.31055L13.6025 66.4917V59.3359H15.7925ZM17.2354 66.1182V65.9644C17.2354 65.3833 17.3184 64.8486 17.4844 64.3604C17.6504 63.8672 17.8921 63.4399 18.2095 63.0786C18.5269 62.7173 18.9175 62.4365 19.3813 62.2363C19.8452 62.0312 20.3774 61.9287 20.978 61.9287C21.5786 61.9287 22.1133 62.0312 22.582 62.2363C23.0508 62.4365 23.4438 62.7173 23.7612 63.0786C24.0835 63.4399 24.3276 63.8672 24.4937 64.3604C24.6597 64.8486 24.7427 65.3833 24.7427 65.9644V66.1182C24.7427 66.6943 24.6597 67.229 24.4937 67.7222C24.3276 68.2104 24.0835 68.6377 23.7612 69.0039C23.4438 69.3652 23.0532 69.646 22.5894 69.8462C22.1255 70.0464 21.5933 70.1465 20.9927 70.1465C20.3921 70.1465 19.8574 70.0464 19.3887 69.8462C18.9248 69.646 18.5317 69.3652 18.2095 69.0039C17.8921 68.6377 17.6504 68.2104 17.4844 67.7222C17.3184 67.229 17.2354 66.6943 17.2354 66.1182ZM19.3447 65.9644V66.1182C19.3447 66.4502 19.374 66.7603 19.4326 67.0483C19.4912 67.3364 19.584 67.5903 19.7109 67.8101C19.8428 68.0249 20.0137 68.1934 20.2236 68.3154C20.4336 68.4375 20.6899 68.4985 20.9927 68.4985C21.2856 68.4985 21.5371 68.4375 21.7471 68.3154C21.957 68.1934 22.1255 68.0249 22.2524 67.8101C22.3794 67.5903 22.4722 67.3364 22.5308 67.0483C22.5942 66.7603 22.626 66.4502 22.626 66.1182V65.9644C22.626 65.6421 22.5942 65.3394 22.5308 65.0562C22.4722 64.7681 22.377 64.5142 22.2451 64.2944C22.1182 64.0698 21.9497 63.894 21.7397 63.7671C21.5298 63.6401 21.2759 63.5767 20.978 63.5767C20.6802 63.5767 20.4263 63.6401 20.2163 63.7671C20.0112 63.894 19.8428 64.0698 19.7109 64.2944C19.584 64.5142 19.4912 64.7681 19.4326 65.0562C19.374 65.3394 19.3447 65.6421 19.3447 65.9644ZM28.6172 68.4619L30.375 62.0752H32.5796L29.9062 70H28.5732L28.6172 68.4619ZM27.4087 62.0752L29.1738 68.4692L29.2104 70H27.8701L25.1968 62.0752H27.4087ZM33.0703 66.1182V65.9644C33.0703 65.3833 33.1533 64.8486 33.3193 64.3604C33.4854 63.8672 33.7271 63.4399 34.0444 63.0786C34.3618 62.7173 34.7524 62.4365 35.2163 62.2363C35.6802 62.0312 36.2124 61.9287 36.813 61.9287C37.4136 61.9287 37.9482 62.0312 38.417 62.2363C38.8857 62.4365 39.2788 62.7173 39.5962 63.0786C39.9185 63.4399 40.1626 63.8672 40.3286 64.3604C40.4946 64.8486 40.5776 65.3833 40.5776 65.9644V66.1182C40.5776 66.6943 40.4946 67.229 40.3286 67.7222C40.1626 68.2104 39.9185 68.6377 39.5962 69.0039C39.2788 69.3652 38.8882 69.646 38.4243 69.8462C37.9604 70.0464 37.4282 70.1465 36.8276 70.1465C36.2271 70.1465 35.6924 70.0464 35.2236 69.8462C34.7598 69.646 34.3667 69.3652 34.0444 69.0039C33.7271 68.6377 33.4854 68.2104 33.3193 67.7222C33.1533 67.229 33.0703 66.6943 33.0703 66.1182ZM35.1797 65.9644V66.1182C35.1797 66.4502 35.209 66.7603 35.2676 67.0483C35.3262 67.3364 35.4189 67.5903 35.5459 67.8101C35.6777 68.0249 35.8486 68.1934 36.0586 68.3154C36.2686 68.4375 36.5249 68.4985 36.8276 68.4985C37.1206 68.4985 37.3721 68.4375 37.582 68.3154C37.792 68.1934 37.9604 68.0249 38.0874 67.8101C38.2144 67.5903 38.3071 67.3364 38.3657 67.0483C38.4292 66.7603 38.4609 66.4502 38.4609 66.1182V65.9644C38.4609 65.6421 38.4292 65.3394 38.3657 65.0562C38.3071 64.7681 38.2119 64.5142 38.0801 64.2944C37.9531 64.0698 37.7847 63.894 37.5747 63.7671C37.3647 63.6401 37.1108 63.5767 36.813 63.5767C36.5151 63.5767 36.2612 63.6401 36.0513 63.7671C35.8462 63.894 35.6777 64.0698 35.5459 64.2944C35.4189 64.5142 35.3262 64.7681 35.2676 65.0562C35.209 65.3394 35.1797 65.6421 35.1797 65.9644ZM10.8633 80.0752V81.5693H6.24902V80.0752H10.8633ZM7.3916 78.1196H9.50098V85.6123C9.50098 85.8418 9.53027 86.0176 9.58887 86.1396C9.65234 86.2617 9.74512 86.3472 9.86719 86.396C9.98926 86.4399 10.1431 86.4619 10.3286 86.4619C10.4604 86.4619 10.5776 86.457 10.6802 86.4473C10.7876 86.4326 10.8779 86.418 10.9512 86.4033L10.9585 87.9561C10.7778 88.0146 10.5825 88.061 10.3726 88.0952C10.1626 88.1294 9.93066 88.1465 9.67676 88.1465C9.21289 88.1465 8.80762 88.0708 8.46094 87.9194C8.11914 87.7632 7.85547 87.5142 7.66992 87.1724C7.48438 86.8306 7.3916 86.3813 7.3916 85.8247V78.1196ZM14.1738 81.8037V88H12.0645V80.0752H14.0493L14.1738 81.8037ZM16.5615 80.0239L16.5249 81.9795C16.4224 81.9648 16.2979 81.9526 16.1514 81.9429C16.0098 81.9282 15.8804 81.9209 15.7632 81.9209C15.4653 81.9209 15.2065 81.96 14.9868 82.0381C14.772 82.1113 14.5913 82.2212 14.4448 82.3677C14.3032 82.5142 14.1958 82.6924 14.1226 82.9023C14.0542 83.1123 14.0151 83.3516 14.0054 83.6201L13.5806 83.4883C13.5806 82.9756 13.6318 82.5044 13.7344 82.0747C13.8369 81.6401 13.9858 81.2617 14.1812 80.9395C14.3813 80.6172 14.6255 80.3682 14.9136 80.1924C15.2017 80.0166 15.5312 79.9287 15.9023 79.9287C16.0195 79.9287 16.1392 79.9385 16.2612 79.958C16.3833 79.9727 16.4834 79.9946 16.5615 80.0239ZM21.5859 86.2129V82.6826C21.5859 82.4287 21.5444 82.2114 21.4614 82.0308C21.3784 81.8452 21.249 81.7012 21.0732 81.5986C20.9023 81.4961 20.6802 81.4448 20.4067 81.4448C20.1724 81.4448 19.9697 81.4863 19.7988 81.5693C19.6279 81.6475 19.4961 81.7622 19.4033 81.9136C19.3105 82.0601 19.2642 82.2334 19.2642 82.4336H17.1548C17.1548 82.0967 17.2329 81.7769 17.3892 81.4741C17.5454 81.1714 17.7725 80.9053 18.0703 80.6758C18.3682 80.4414 18.7222 80.2583 19.1323 80.1265C19.5474 79.9946 20.0112 79.9287 20.5239 79.9287C21.1392 79.9287 21.686 80.0312 22.1646 80.2363C22.6431 80.4414 23.019 80.749 23.2925 81.1592C23.5708 81.5693 23.71 82.082 23.71 82.6973V86.0884C23.71 86.5229 23.7368 86.8794 23.7905 87.1577C23.8442 87.4312 23.9224 87.6704 24.0249 87.8755V88H21.8936C21.791 87.7852 21.7129 87.5166 21.6592 87.1943C21.6104 86.8672 21.5859 86.54 21.5859 86.2129ZM21.8643 83.1733L21.8789 84.3672H20.6997C20.4214 84.3672 20.1797 84.3989 19.9746 84.4624C19.7695 84.5259 19.6011 84.6162 19.4692 84.7334C19.3374 84.8457 19.2397 84.9775 19.1763 85.1289C19.1177 85.2803 19.0884 85.4463 19.0884 85.627C19.0884 85.8076 19.1299 85.9712 19.2129 86.1177C19.2959 86.2593 19.4155 86.3716 19.5718 86.4546C19.728 86.5327 19.9111 86.5718 20.1211 86.5718C20.4385 86.5718 20.7144 86.5083 20.9487 86.3813C21.1831 86.2544 21.3638 86.0981 21.4907 85.9126C21.6226 85.7271 21.6909 85.5513 21.6958 85.3853L22.2524 86.2788C22.1743 86.479 22.0669 86.6865 21.9302 86.9014C21.7983 87.1162 21.6299 87.3188 21.4248 87.5093C21.2197 87.6948 20.9731 87.8486 20.6851 87.9707C20.397 88.0879 20.0552 88.1465 19.6597 88.1465C19.1567 88.1465 18.7002 88.0464 18.29 87.8462C17.8848 87.6411 17.5625 87.3604 17.3232 87.0039C17.0889 86.6426 16.9717 86.2324 16.9717 85.7734C16.9717 85.3584 17.0498 84.9897 17.2061 84.6675C17.3623 84.3452 17.5918 84.0742 17.8945 83.8545C18.2021 83.6299 18.5854 83.4614 19.0444 83.3491C19.5034 83.2319 20.0356 83.1733 20.6411 83.1733H21.8643ZM29.2178 80.0752V81.5693H24.6035V80.0752H29.2178ZM25.7461 78.1196H27.8555V85.6123C27.8555 85.8418 27.8848 86.0176 27.9434 86.1396C28.0068 86.2617 28.0996 86.3472 28.2217 86.396C28.3438 86.4399 28.4976 86.4619 28.6831 86.4619C28.8149 86.4619 28.9321 86.457 29.0347 86.4473C29.1421 86.4326 29.2324 86.418 29.3057 86.4033L29.313 87.9561C29.1323 88.0146 28.937 88.061 28.7271 88.0952C28.5171 88.1294 28.2852 88.1465 28.0312 88.1465C27.5674 88.1465 27.1621 88.0708 26.8154 87.9194C26.4736 87.7632 26.21 87.5142 26.0244 87.1724C25.8389 86.8306 25.7461 86.3813 25.7461 85.8247V78.1196ZM34.6963 86.2129V82.6826C34.6963 82.4287 34.6548 82.2114 34.5718 82.0308C34.4888 81.8452 34.3594 81.7012 34.1836 81.5986C34.0127 81.4961 33.7905 81.4448 33.5171 81.4448C33.2827 81.4448 33.0801 81.4863 32.9092 81.5693C32.7383 81.6475 32.6064 81.7622 32.5137 81.9136C32.4209 82.0601 32.3745 82.2334 32.3745 82.4336H30.2651C30.2651 82.0967 30.3433 81.7769 30.4995 81.4741C30.6558 81.1714 30.8828 80.9053 31.1807 80.6758C31.4785 80.4414 31.8325 80.2583 32.2427 80.1265C32.6577 79.9946 33.1216 79.9287 33.6343 79.9287C34.2495 79.9287 34.7964 80.0312 35.2749 80.2363C35.7534 80.4414 36.1294 80.749 36.4028 81.1592C36.6812 81.5693 36.8203 82.082 36.8203 82.6973V86.0884C36.8203 86.5229 36.8472 86.8794 36.9009 87.1577C36.9546 87.4312 37.0327 87.6704 37.1353 87.8755V88H35.0039C34.9014 87.7852 34.8232 87.5166 34.7695 87.1943C34.7207 86.8672 34.6963 86.54 34.6963 86.2129ZM34.9746 83.1733L34.9893 84.3672H33.8101C33.5317 84.3672 33.29 84.3989 33.085 84.4624C32.8799 84.5259 32.7114 84.6162 32.5796 84.7334C32.4478 84.8457 32.3501 84.9775 32.2866 85.1289C32.228 85.2803 32.1987 85.4463 32.1987 85.627C32.1987 85.8076 32.2402 85.9712 32.3232 86.1177C32.4062 86.2593 32.5259 86.3716 32.6821 86.4546C32.8384 86.5327 33.0215 86.5718 33.2314 86.5718C33.5488 86.5718 33.8247 86.5083 34.0591 86.3813C34.2935 86.2544 34.4741 86.0981 34.6011 85.9126C34.7329 85.7271 34.8013 85.5513 34.8062 85.3853L35.3628 86.2788C35.2847 86.479 35.1772 86.6865 35.0405 86.9014C34.9087 87.1162 34.7402 87.3188 34.5352 87.5093C34.3301 87.6948 34.0835 87.8486 33.7954 87.9707C33.5073 88.0879 33.1655 88.1465 32.77 88.1465C32.2671 88.1465 31.8105 88.0464 31.4004 87.8462C30.9951 87.6411 30.6729 87.3604 30.4336 87.0039C30.1992 86.6426 30.082 86.2324 30.082 85.7734C30.082 85.3584 30.1602 84.9897 30.3164 84.6675C30.4727 84.3452 30.7021 84.0742 31.0049 83.8545C31.3125 83.6299 31.6958 83.4614 32.1548 83.3491C32.6138 83.2319 33.146 83.1733 33.7515 83.1733H34.9746ZM40.5557 81.7158V88H38.439V80.0752H40.4238L40.5557 81.7158ZM40.2627 83.7593H39.6768C39.6768 83.2075 39.7427 82.6997 39.8745 82.2358C40.0112 81.7671 40.209 81.3618 40.4678 81.02C40.7314 80.6733 41.0562 80.4048 41.4419 80.2144C41.8276 80.0239 42.2744 79.9287 42.7822 79.9287C43.1338 79.9287 43.4561 79.9824 43.749 80.0898C44.042 80.1924 44.2935 80.356 44.5034 80.5806C44.7183 80.8003 44.8843 81.0884 45.0015 81.4448C45.1187 81.7964 45.1772 82.2188 45.1772 82.7119V88H43.0679V82.9463C43.0679 82.585 43.019 82.3066 42.9214 82.1113C42.8237 81.916 42.6846 81.7793 42.5039 81.7012C42.3281 81.623 42.1157 81.584 41.8667 81.584C41.5933 81.584 41.354 81.6401 41.1489 81.7524C40.9487 81.8647 40.7827 82.021 40.6509 82.2212C40.519 82.4165 40.4214 82.646 40.3579 82.9097C40.2944 83.1733 40.2627 83.4565 40.2627 83.7593ZM44.9795 83.5176L44.2251 83.6128C44.2251 83.0952 44.2886 82.6143 44.4155 82.1699C44.5474 81.7256 44.7402 81.335 44.9941 80.998C45.2529 80.6611 45.5728 80.3999 45.9536 80.2144C46.3345 80.0239 46.7739 79.9287 47.272 79.9287C47.6528 79.9287 47.9995 79.9849 48.312 80.0972C48.6245 80.2046 48.8906 80.3779 49.1104 80.6172C49.335 80.8516 49.5059 81.1592 49.623 81.54C49.7451 81.9209 49.8062 82.3872 49.8062 82.939V88H47.6895V82.939C47.6895 82.5728 47.6406 82.2944 47.543 82.104C47.4502 81.9087 47.3135 81.7744 47.1328 81.7012C46.957 81.623 46.7471 81.584 46.5029 81.584C46.249 81.584 46.0269 81.6353 45.8364 81.7378C45.646 81.8354 45.4873 81.9722 45.3604 82.1479C45.2334 82.3237 45.1382 82.5288 45.0747 82.7632C45.0112 82.9927 44.9795 83.2441 44.9795 83.5176ZM55.0869 88.1465C54.4717 88.1465 53.9199 88.0488 53.4316 87.8535C52.9434 87.6533 52.5283 87.3774 52.1865 87.0259C51.8496 86.6743 51.5908 86.2666 51.4102 85.8027C51.2295 85.334 51.1392 84.8359 51.1392 84.3086V84.0156C51.1392 83.415 51.2246 82.8657 51.3955 82.3677C51.5664 81.8696 51.8105 81.4375 52.1279 81.0713C52.4502 80.7051 52.8408 80.4243 53.2998 80.229C53.7588 80.0288 54.2764 79.9287 54.8525 79.9287C55.4141 79.9287 55.9121 80.0215 56.3467 80.207C56.7812 80.3926 57.145 80.6562 57.438 80.998C57.7358 81.3398 57.9604 81.75 58.1118 82.2285C58.2632 82.7021 58.3389 83.2295 58.3389 83.8105V84.6895H52.04V83.2832H56.2661V83.1221C56.2661 82.8291 56.2124 82.5679 56.105 82.3384C56.0024 82.104 55.8462 81.9185 55.6362 81.7817C55.4263 81.645 55.1577 81.5767 54.8306 81.5767C54.5522 81.5767 54.313 81.6377 54.1128 81.7598C53.9126 81.8818 53.749 82.0527 53.6221 82.2725C53.5 82.4922 53.4072 82.751 53.3438 83.0488C53.2852 83.3418 53.2559 83.6641 53.2559 84.0156V84.3086C53.2559 84.626 53.2998 84.9189 53.3877 85.1875C53.4805 85.4561 53.6099 85.688 53.7759 85.8833C53.9468 86.0786 54.1519 86.23 54.3911 86.3374C54.6353 86.4448 54.9111 86.4985 55.2188 86.4985C55.5996 86.4985 55.9536 86.4253 56.2808 86.2788C56.6128 86.1274 56.8984 85.9004 57.1377 85.5977L58.1631 86.7109C57.9971 86.9502 57.77 87.1797 57.4819 87.3994C57.1987 87.6191 56.8569 87.7998 56.4565 87.9414C56.0562 88.0781 55.5996 88.1465 55.0869 88.1465ZM61.6055 81.7671V88H59.4961V80.0752H61.4736L61.6055 81.7671ZM61.2979 83.7593H60.7266C60.7266 83.1733 60.8022 82.646 60.9536 82.1772C61.105 81.7036 61.3174 81.3008 61.5908 80.9688C61.8643 80.6318 62.189 80.3755 62.5649 80.1997C62.9458 80.019 63.3706 79.9287 63.8394 79.9287C64.2104 79.9287 64.5498 79.9824 64.8574 80.0898C65.165 80.1973 65.4287 80.3682 65.6484 80.6025C65.873 80.8369 66.0439 81.147 66.1611 81.5327C66.2832 81.9185 66.3442 82.3896 66.3442 82.9463V88H64.2202V82.939C64.2202 82.5874 64.1714 82.314 64.0737 82.1187C63.9761 81.9233 63.832 81.7866 63.6416 81.7085C63.4561 81.6255 63.2266 81.584 62.9531 81.584C62.6699 81.584 62.4233 81.6401 62.2134 81.7524C62.0083 81.8647 61.8374 82.021 61.7007 82.2212C61.5688 82.4165 61.4688 82.646 61.4004 82.9097C61.332 83.1733 61.2979 83.4565 61.2979 83.7593ZM71.8301 80.0752V81.5693H67.2158V80.0752H71.8301ZM68.3584 78.1196H70.4678V85.6123C70.4678 85.8418 70.4971 86.0176 70.5557 86.1396C70.6191 86.2617 70.7119 86.3472 70.834 86.396C70.9561 86.4399 71.1099 86.4619 71.2954 86.4619C71.4272 86.4619 71.5444 86.457 71.647 86.4473C71.7544 86.4326 71.8447 86.418 71.918 86.4033L71.9253 87.9561C71.7446 88.0146 71.5493 88.061 71.3394 88.0952C71.1294 88.1294 70.8975 88.1465 70.6436 88.1465C70.1797 88.1465 69.7744 88.0708 69.4277 87.9194C69.0859 87.7632 68.8223 87.5142 68.6367 87.1724C68.4512 86.8306 68.3584 86.3813 68.3584 85.8247V78.1196ZM72.5039 84.1182V83.9644C72.5039 83.3833 72.5869 82.8486 72.7529 82.3604C72.9189 81.8672 73.1606 81.4399 73.478 81.0786C73.7954 80.7173 74.186 80.4365 74.6499 80.2363C75.1138 80.0312 75.646 79.9287 76.2466 79.9287C76.8472 79.9287 77.3818 80.0312 77.8506 80.2363C78.3193 80.4365 78.7124 80.7173 79.0298 81.0786C79.3521 81.4399 79.5962 81.8672 79.7622 82.3604C79.9282 82.8486 80.0112 83.3833 80.0112 83.9644V84.1182C80.0112 84.6943 79.9282 85.229 79.7622 85.7222C79.5962 86.2104 79.3521 86.6377 79.0298 87.0039C78.7124 87.3652 78.3218 87.646 77.8579 87.8462C77.394 88.0464 76.8618 88.1465 76.2612 88.1465C75.6606 88.1465 75.126 88.0464 74.6572 87.8462C74.1934 87.646 73.8003 87.3652 73.478 87.0039C73.1606 86.6377 72.9189 86.2104 72.7529 85.7222C72.5869 85.229 72.5039 84.6943 72.5039 84.1182ZM74.6133 83.9644V84.1182C74.6133 84.4502 74.6426 84.7603 74.7012 85.0483C74.7598 85.3364 74.8525 85.5903 74.9795 85.8101C75.1113 86.0249 75.2822 86.1934 75.4922 86.3154C75.7021 86.4375 75.9585 86.4985 76.2612 86.4985C76.5542 86.4985 76.8057 86.4375 77.0156 86.3154C77.2256 86.1934 77.394 86.0249 77.521 85.8101C77.6479 85.5903 77.7407 85.3364 77.7993 85.0483C77.8628 84.7603 77.8945 84.4502 77.8945 84.1182V83.9644C77.8945 83.6421 77.8628 83.3394 77.7993 83.0562C77.7407 82.7681 77.6455 82.5142 77.5137 82.2944C77.3867 82.0698 77.2183 81.894 77.0083 81.7671C76.7983 81.6401 76.5444 81.5767 76.2466 81.5767C75.9487 81.5767 75.6948 81.6401 75.4849 81.7671C75.2798 81.894 75.1113 82.0698 74.9795 82.2944C74.8525 82.5142 74.7598 82.7681 74.7012 83.0562C74.6426 83.3394 74.6133 83.6421 74.6133 83.9644Z" fill="#FBFBFB"/>
</svg>
