<svg width="40" height="43" viewBox="0 0 40 43" fill="none" xmlns="http://www.w3.org/2000/svg">
<path d="M0.5 10C0.5 4.75329 4.7533 0.5 10 0.5H30C35.2467 0.5 39.5 4.7533 39.5 10V33C39.5 38.2467 35.2467 42.5 30 42.5H10C4.7533 42.5 0.5 38.2467 0.5 33V10Z" fill="white" stroke="#0063C7"/>
<path d="M26.7071 23.7071L29.3552 26.3552C29.7113 26.7113 29.7113 27.2887 29.3552 27.6448C27.43 29.57 24.3821 29.7866 22.204 28.153L20.6286 26.9714C18.885 25.6638 17.3362 24.115 16.0286 22.3714L14.847 20.796C13.2134 18.6179 13.43 15.57 15.3552 13.6448C15.7113 13.2887 16.2887 13.2887 16.6448 13.6448L19.2929 16.2929C19.6834 16.6834 19.6834 17.3166 19.2929 17.7071L18.2717 18.7283C18.1095 18.8905 18.0692 19.1385 18.1719 19.3437C19.3585 21.7171 21.2829 23.6415 23.6563 24.8281C23.8615 24.9308 24.1095 24.8905 24.2717 24.7283L25.2929 23.7071C25.6834 23.3166 26.3166 23.3166 26.7071 23.7071Z" stroke="#0063C7" stroke-width="2"/>
</svg>
