<svg width="50" height="50" viewBox="0 0 50 50" fill="none" xmlns="http://www.w3.org/2000/svg">
<path d="M0.5 10C0.5 4.75329 4.75329 0.5 10 0.5H40C45.2467 0.5 49.5 4.7533 49.5 10V40C49.5 45.2467 45.2467 49.5 40 49.5H10C4.75329 49.5 0.5 45.2467 0.5 40V10Z" fill="white" stroke="#0063C7"/>
<path d="M30.7071 26.7071L33.3552 29.3552C33.7113 29.7113 33.7113 30.2887 33.3552 30.6448C31.43 32.57 28.3821 32.7866 26.204 31.153L24.6286 29.9714C22.885 28.6638 21.3362 27.115 20.0286 25.3714L18.847 23.796C17.2134 21.6179 17.43 18.57 19.3552 16.6448C19.7113 16.2887 20.2887 16.2887 20.6448 16.6448L23.2929 19.2929C23.6834 19.6834 23.6834 20.3166 23.2929 20.7071L22.2717 21.7283C22.1095 21.8905 22.0692 22.1385 22.1719 22.3437C23.3585 24.7171 25.2829 26.6415 27.6563 27.8281C27.8615 27.9308 28.1095 27.8905 28.2717 27.7283L29.2929 26.7071C29.6834 26.3166 30.3166 26.3166 30.7071 26.7071Z" stroke="#0063C7" stroke-width="2"/>
</svg>
