<svg width="20" height="20" viewBox="0 0 24 24" fill="none" xmlns="http://www.w3.org/2000/svg">
<path d="M18.2222 4.8H17.3333V3H15.5556V4.8H8.44444V3H6.66667V4.8H5.77778C5.30628 4.8 4.8541 4.98964 4.5207 5.32721C4.1873 5.66477 4 6.12261 4 6.6V19.2C4 19.6774 4.1873 20.1352 4.5207 20.4728C4.8541 20.8104 5.30628 21 5.77778 21H18.2222C18.6937 21 19.1459 20.8104 19.4793 20.4728C19.8127 20.1352 20 19.6774 20 19.2V6.6C20 6.12261 19.8127 5.66477 19.4793 5.32721C19.1459 4.98964 18.6937 4.8 18.2222 4.8ZM18.2222 19.2H5.77778V10.2H18.2222V19.2ZM5.77778 8.4V6.6H18.2222V8.4H5.77778ZM7.55556 12H16.4444V13.8H7.55556V12ZM7.55556 15.6H13.7778V17.4H7.55556V15.6Z" fill="black"/>
</svg>
